M48
; DRILL file {KiCad (5.1.12)-1} date 11/17/21 19:51:35
; FORMAT={-:-/ absolute / metric / decimal}
; #@! TF.CreationDate,2021-11-17T19:51:35+01:00
; #@! TF.GenerationSoftware,Kicad,Pcbnew,(5.1.12)-1
; #@! TF.FileFunction,Plated,1,2,PTH
FMAT,2
METRIC
T1C0.400
T2C0.600
T3C0.800
T4C0.900
T5C1.500
%
G90
G05
T1
X69.85Y-66.04
X69.85Y-78.74
X78.74Y-57.15
X78.74Y-62.23
X78.74Y-64.77
X78.74Y-81.28
X81.28Y-55.88
X81.28Y-58.42
X82.55Y-43.18
X82.55Y-46.99
X82.55Y-62.23
X82.55Y-64.77
X92.71Y-73.66
X95.25Y-83.82
X97.79Y-80.01
X97.79Y-82.55
X97.79Y-83.82
X99.06Y-80.01
X99.06Y-82.55
X101.6Y-45.72
X102.87Y-57.15
X102.87Y-59.69
X102.87Y-66.04
X106.815Y-76.065
T2
X67.31Y-43.18
X67.31Y-45.18
T3
X86.36Y-39.37
X86.36Y-54.61
X86.36Y-63.5
X86.36Y-71.12
X86.36Y-77.47
X86.36Y-85.09
X88.9Y-39.37
X88.9Y-54.61
X88.9Y-63.5
X88.9Y-71.12
X88.9Y-77.47
X88.9Y-85.09
X91.44Y-39.37
X91.44Y-54.61
X91.44Y-63.5
X91.44Y-71.12
X91.44Y-77.47
X91.44Y-85.09
X93.98Y-39.37
X93.98Y-54.61
X93.98Y-63.5
X93.98Y-71.12
X93.98Y-77.47
X93.98Y-85.09
X96.52Y-39.37
X96.52Y-54.61
X96.52Y-63.5
X96.52Y-71.12
X96.52Y-77.47
X96.52Y-85.09
X99.06Y-39.37
X99.06Y-54.61
X99.06Y-63.5
X99.06Y-71.12
X99.06Y-77.47
X99.06Y-85.09
X101.6Y-39.37
X101.6Y-54.61
X101.6Y-63.5
X101.6Y-71.12
X101.6Y-77.47
X101.6Y-85.09
X104.14Y-39.37
X104.14Y-54.61
X106.68Y-39.37
X106.68Y-54.61
X109.22Y-39.37
X109.22Y-54.61
X111.76Y-39.37
X111.76Y-54.61
X114.3Y-39.37
X114.3Y-54.61
X116.84Y-39.37
X116.84Y-54.61
X119.38Y-39.37
X119.38Y-54.61
T4
X119.38Y-90.17
X121.38Y-90.17
X123.38Y-90.17
T5
X117.28Y-90.17
X118.11Y-68.58
X118.11Y-74.03
X118.11Y-79.48
X125.48Y-90.17
T0
M30
