%TF.GenerationSoftware,KiCad,Pcbnew,(5.1.12)-1*%
%TF.CreationDate,2021-11-18T16:19:18+01:00*%
%TF.ProjectId,SC-88VL,53432d38-3856-44c2-9e6b-696361645f70,rev?*%
%TF.SameCoordinates,Original*%
%TF.FileFunction,Legend,Top*%
%TF.FilePolarity,Positive*%
%FSLAX46Y46*%
G04 Gerber Fmt 4.6, Leading zero omitted, Abs format (unit mm)*
G04 Created by KiCad (PCBNEW (5.1.12)-1) date 2021-11-18 16:19:18*
%MOMM*%
%LPD*%
G01*
G04 APERTURE LIST*
%ADD10C,0.250000*%
%ADD11C,0.125000*%
%ADD12C,0.120000*%
%ADD13C,0.150000*%
G04 APERTURE END LIST*
D10*
X122428095Y-78240000D02*
X122332857Y-78192380D01*
X122190000Y-78192380D01*
X122047142Y-78240000D01*
X121951904Y-78335238D01*
X121904285Y-78430476D01*
X121856666Y-78620952D01*
X121856666Y-78763809D01*
X121904285Y-78954285D01*
X121951904Y-79049523D01*
X122047142Y-79144761D01*
X122190000Y-79192380D01*
X122285238Y-79192380D01*
X122428095Y-79144761D01*
X122475714Y-79097142D01*
X122475714Y-78763809D01*
X122285238Y-78763809D01*
X122904285Y-79192380D02*
X122904285Y-78192380D01*
X123475714Y-79192380D01*
X123475714Y-78192380D01*
X123951904Y-79192380D02*
X123951904Y-78192380D01*
X124190000Y-78192380D01*
X124332857Y-78240000D01*
X124428095Y-78335238D01*
X124475714Y-78430476D01*
X124523333Y-78620952D01*
X124523333Y-78763809D01*
X124475714Y-78954285D01*
X124428095Y-79049523D01*
X124332857Y-79144761D01*
X124190000Y-79192380D01*
X123951904Y-79192380D01*
X121856666Y-73112380D02*
X122190000Y-74112380D01*
X122523333Y-73112380D01*
X123428095Y-74017142D02*
X123380476Y-74064761D01*
X123237619Y-74112380D01*
X123142380Y-74112380D01*
X122999523Y-74064761D01*
X122904285Y-73969523D01*
X122856666Y-73874285D01*
X122809047Y-73683809D01*
X122809047Y-73540952D01*
X122856666Y-73350476D01*
X122904285Y-73255238D01*
X122999523Y-73160000D01*
X123142380Y-73112380D01*
X123237619Y-73112380D01*
X123380476Y-73160000D01*
X123428095Y-73207619D01*
X124428095Y-74017142D02*
X124380476Y-74064761D01*
X124237619Y-74112380D01*
X124142380Y-74112380D01*
X123999523Y-74064761D01*
X123904285Y-73969523D01*
X123856666Y-73874285D01*
X123809047Y-73683809D01*
X123809047Y-73540952D01*
X123856666Y-73350476D01*
X123904285Y-73255238D01*
X123999523Y-73160000D01*
X124142380Y-73112380D01*
X124237619Y-73112380D01*
X124380476Y-73160000D01*
X124428095Y-73207619D01*
X121690000Y-69032380D02*
X121690000Y-68032380D01*
X121928095Y-68032380D01*
X122070952Y-68080000D01*
X122166190Y-68175238D01*
X122213809Y-68270476D01*
X122261428Y-68460952D01*
X122261428Y-68603809D01*
X122213809Y-68794285D01*
X122166190Y-68889523D01*
X122070952Y-68984761D01*
X121928095Y-69032380D01*
X121690000Y-69032380D01*
X122642380Y-68746666D02*
X123118571Y-68746666D01*
X122547142Y-69032380D02*
X122880476Y-68032380D01*
X123213809Y-69032380D01*
X123404285Y-68032380D02*
X123975714Y-68032380D01*
X123690000Y-69032380D02*
X123690000Y-68032380D01*
X124261428Y-68746666D02*
X124737619Y-68746666D01*
X124166190Y-69032380D02*
X124499523Y-68032380D01*
X124832857Y-69032380D01*
X66707142Y-90622380D02*
X66373809Y-90146190D01*
X66135714Y-90622380D02*
X66135714Y-89622380D01*
X66516666Y-89622380D01*
X66611904Y-89670000D01*
X66659523Y-89717619D01*
X66707142Y-89812857D01*
X66707142Y-89955714D01*
X66659523Y-90050952D01*
X66611904Y-90098571D01*
X66516666Y-90146190D01*
X66135714Y-90146190D01*
X67516666Y-90574761D02*
X67421428Y-90622380D01*
X67230952Y-90622380D01*
X67135714Y-90574761D01*
X67088095Y-90479523D01*
X67088095Y-90098571D01*
X67135714Y-90003333D01*
X67230952Y-89955714D01*
X67421428Y-89955714D01*
X67516666Y-90003333D01*
X67564285Y-90098571D01*
X67564285Y-90193809D01*
X67088095Y-90289047D01*
X67897619Y-89955714D02*
X68135714Y-90622380D01*
X68373809Y-89955714D01*
X68754761Y-90622380D02*
X68754761Y-89955714D01*
X68754761Y-89622380D02*
X68707142Y-89670000D01*
X68754761Y-89717619D01*
X68802380Y-89670000D01*
X68754761Y-89622380D01*
X68754761Y-89717619D01*
X69183333Y-90574761D02*
X69278571Y-90622380D01*
X69469047Y-90622380D01*
X69564285Y-90574761D01*
X69611904Y-90479523D01*
X69611904Y-90431904D01*
X69564285Y-90336666D01*
X69469047Y-90289047D01*
X69326190Y-90289047D01*
X69230952Y-90241428D01*
X69183333Y-90146190D01*
X69183333Y-90098571D01*
X69230952Y-90003333D01*
X69326190Y-89955714D01*
X69469047Y-89955714D01*
X69564285Y-90003333D01*
X70040476Y-90622380D02*
X70040476Y-89955714D01*
X70040476Y-89622380D02*
X69992857Y-89670000D01*
X70040476Y-89717619D01*
X70088095Y-89670000D01*
X70040476Y-89622380D01*
X70040476Y-89717619D01*
X70659523Y-90622380D02*
X70564285Y-90574761D01*
X70516666Y-90527142D01*
X70469047Y-90431904D01*
X70469047Y-90146190D01*
X70516666Y-90050952D01*
X70564285Y-90003333D01*
X70659523Y-89955714D01*
X70802380Y-89955714D01*
X70897619Y-90003333D01*
X70945238Y-90050952D01*
X70992857Y-90146190D01*
X70992857Y-90431904D01*
X70945238Y-90527142D01*
X70897619Y-90574761D01*
X70802380Y-90622380D01*
X70659523Y-90622380D01*
X71421428Y-89955714D02*
X71421428Y-90622380D01*
X71421428Y-90050952D02*
X71469047Y-90003333D01*
X71564285Y-89955714D01*
X71707142Y-89955714D01*
X71802380Y-90003333D01*
X71850000Y-90098571D01*
X71850000Y-90622380D01*
X73564285Y-89622380D02*
X73088095Y-89622380D01*
X73040476Y-90098571D01*
X73088095Y-90050952D01*
X73183333Y-90003333D01*
X73421428Y-90003333D01*
X73516666Y-90050952D01*
X73564285Y-90098571D01*
X73611904Y-90193809D01*
X73611904Y-90431904D01*
X73564285Y-90527142D01*
X73516666Y-90574761D01*
X73421428Y-90622380D01*
X73183333Y-90622380D01*
X73088095Y-90574761D01*
X73040476Y-90527142D01*
D11*
X67956666Y-93342500D02*
X68056666Y-93375833D01*
X68090000Y-93409166D01*
X68123333Y-93475833D01*
X68123333Y-93575833D01*
X68090000Y-93642500D01*
X68056666Y-93675833D01*
X67990000Y-93709166D01*
X67723333Y-93709166D01*
X67723333Y-93009166D01*
X67956666Y-93009166D01*
X68023333Y-93042500D01*
X68056666Y-93075833D01*
X68090000Y-93142500D01*
X68090000Y-93209166D01*
X68056666Y-93275833D01*
X68023333Y-93309166D01*
X67956666Y-93342500D01*
X67723333Y-93342500D01*
X68356666Y-93242500D02*
X68523333Y-93709166D01*
X68690000Y-93242500D02*
X68523333Y-93709166D01*
X68456666Y-93875833D01*
X68423333Y-93909166D01*
X68356666Y-93942500D01*
X69490000Y-93709166D02*
X69490000Y-93009166D01*
X69723333Y-93509166D01*
X69956666Y-93009166D01*
X69956666Y-93709166D01*
X70590000Y-93709166D02*
X70590000Y-93342500D01*
X70556666Y-93275833D01*
X70490000Y-93242500D01*
X70356666Y-93242500D01*
X70290000Y-93275833D01*
X70590000Y-93675833D02*
X70523333Y-93709166D01*
X70356666Y-93709166D01*
X70290000Y-93675833D01*
X70256666Y-93609166D01*
X70256666Y-93542500D01*
X70290000Y-93475833D01*
X70356666Y-93442500D01*
X70523333Y-93442500D01*
X70590000Y-93409166D01*
X70823333Y-93242500D02*
X71090000Y-93242500D01*
X70923333Y-93009166D02*
X70923333Y-93609166D01*
X70956666Y-93675833D01*
X71023333Y-93709166D01*
X71090000Y-93709166D01*
X71323333Y-93709166D02*
X71323333Y-93009166D01*
X71623333Y-93709166D02*
X71623333Y-93342500D01*
X71590000Y-93275833D01*
X71523333Y-93242500D01*
X71423333Y-93242500D01*
X71356666Y-93275833D01*
X71323333Y-93309166D01*
X71956666Y-93709166D02*
X71956666Y-93242500D01*
X71956666Y-93009166D02*
X71923333Y-93042500D01*
X71956666Y-93075833D01*
X71990000Y-93042500D01*
X71956666Y-93009166D01*
X71956666Y-93075833D01*
X72556666Y-93675833D02*
X72490000Y-93709166D01*
X72356666Y-93709166D01*
X72290000Y-93675833D01*
X72256666Y-93609166D01*
X72256666Y-93342500D01*
X72290000Y-93275833D01*
X72356666Y-93242500D01*
X72490000Y-93242500D01*
X72556666Y-93275833D01*
X72590000Y-93342500D01*
X72590000Y-93409166D01*
X72256666Y-93475833D01*
X73190000Y-93242500D02*
X73190000Y-93709166D01*
X72890000Y-93242500D02*
X72890000Y-93609166D01*
X72923333Y-93675833D01*
X72990000Y-93709166D01*
X73090000Y-93709166D01*
X73156666Y-93675833D01*
X73190000Y-93642500D01*
X73623333Y-93709166D02*
X73556666Y-93675833D01*
X73523333Y-93609166D01*
X73523333Y-93009166D01*
X73890000Y-93709166D02*
X73890000Y-93009166D01*
X74190000Y-93709166D02*
X74190000Y-93342500D01*
X74156666Y-93275833D01*
X74090000Y-93242500D01*
X73990000Y-93242500D01*
X73923333Y-93275833D01*
X73890000Y-93309166D01*
X74556666Y-93675833D02*
X74556666Y-93709166D01*
X74523333Y-93775833D01*
X74490000Y-93809166D01*
X75490000Y-93709166D02*
X75423333Y-93675833D01*
X75390000Y-93642500D01*
X75356666Y-93575833D01*
X75356666Y-93375833D01*
X75390000Y-93309166D01*
X75423333Y-93275833D01*
X75490000Y-93242500D01*
X75590000Y-93242500D01*
X75656666Y-93275833D01*
X75690000Y-93309166D01*
X75723333Y-93375833D01*
X75723333Y-93575833D01*
X75690000Y-93642500D01*
X75656666Y-93675833D01*
X75590000Y-93709166D01*
X75490000Y-93709166D01*
X76023333Y-93709166D02*
X76023333Y-93242500D01*
X76023333Y-93375833D02*
X76056666Y-93309166D01*
X76090000Y-93275833D01*
X76156666Y-93242500D01*
X76223333Y-93242500D01*
X76456666Y-93709166D02*
X76456666Y-93242500D01*
X76456666Y-93009166D02*
X76423333Y-93042500D01*
X76456666Y-93075833D01*
X76490000Y-93042500D01*
X76456666Y-93009166D01*
X76456666Y-93075833D01*
X77090000Y-93242500D02*
X77090000Y-93809166D01*
X77056666Y-93875833D01*
X77023333Y-93909166D01*
X76956666Y-93942500D01*
X76856666Y-93942500D01*
X76790000Y-93909166D01*
X77090000Y-93675833D02*
X77023333Y-93709166D01*
X76890000Y-93709166D01*
X76823333Y-93675833D01*
X76790000Y-93642500D01*
X76756666Y-93575833D01*
X76756666Y-93375833D01*
X76790000Y-93309166D01*
X76823333Y-93275833D01*
X76890000Y-93242500D01*
X77023333Y-93242500D01*
X77090000Y-93275833D01*
X77423333Y-93709166D02*
X77423333Y-93242500D01*
X77423333Y-93009166D02*
X77390000Y-93042500D01*
X77423333Y-93075833D01*
X77456666Y-93042500D01*
X77423333Y-93009166D01*
X77423333Y-93075833D01*
X77756666Y-93242500D02*
X77756666Y-93709166D01*
X77756666Y-93309166D02*
X77790000Y-93275833D01*
X77856666Y-93242500D01*
X77956666Y-93242500D01*
X78023333Y-93275833D01*
X78056666Y-93342500D01*
X78056666Y-93709166D01*
X78690000Y-93709166D02*
X78690000Y-93342500D01*
X78656666Y-93275833D01*
X78590000Y-93242500D01*
X78456666Y-93242500D01*
X78390000Y-93275833D01*
X78690000Y-93675833D02*
X78623333Y-93709166D01*
X78456666Y-93709166D01*
X78390000Y-93675833D01*
X78356666Y-93609166D01*
X78356666Y-93542500D01*
X78390000Y-93475833D01*
X78456666Y-93442500D01*
X78623333Y-93442500D01*
X78690000Y-93409166D01*
X79123333Y-93709166D02*
X79056666Y-93675833D01*
X79023333Y-93609166D01*
X79023333Y-93009166D01*
X79890000Y-93675833D02*
X79956666Y-93709166D01*
X80090000Y-93709166D01*
X80156666Y-93675833D01*
X80190000Y-93609166D01*
X80190000Y-93575833D01*
X80156666Y-93509166D01*
X80090000Y-93475833D01*
X79990000Y-93475833D01*
X79923333Y-93442500D01*
X79890000Y-93375833D01*
X79890000Y-93342500D01*
X79923333Y-93275833D01*
X79990000Y-93242500D01*
X80090000Y-93242500D01*
X80156666Y-93275833D01*
X80790000Y-93675833D02*
X80723333Y-93709166D01*
X80590000Y-93709166D01*
X80523333Y-93675833D01*
X80490000Y-93642500D01*
X80456666Y-93575833D01*
X80456666Y-93375833D01*
X80490000Y-93309166D01*
X80523333Y-93275833D01*
X80590000Y-93242500D01*
X80723333Y-93242500D01*
X80790000Y-93275833D01*
X81090000Y-93709166D02*
X81090000Y-93009166D01*
X81390000Y-93709166D02*
X81390000Y-93342500D01*
X81356666Y-93275833D01*
X81290000Y-93242500D01*
X81190000Y-93242500D01*
X81123333Y-93275833D01*
X81090000Y-93309166D01*
X81990000Y-93675833D02*
X81923333Y-93709166D01*
X81790000Y-93709166D01*
X81723333Y-93675833D01*
X81690000Y-93609166D01*
X81690000Y-93342500D01*
X81723333Y-93275833D01*
X81790000Y-93242500D01*
X81923333Y-93242500D01*
X81990000Y-93275833D01*
X82023333Y-93342500D01*
X82023333Y-93409166D01*
X81690000Y-93475833D01*
X82323333Y-93709166D02*
X82323333Y-93242500D01*
X82323333Y-93309166D02*
X82356666Y-93275833D01*
X82423333Y-93242500D01*
X82523333Y-93242500D01*
X82590000Y-93275833D01*
X82623333Y-93342500D01*
X82623333Y-93709166D01*
X82623333Y-93342500D02*
X82656666Y-93275833D01*
X82723333Y-93242500D01*
X82823333Y-93242500D01*
X82890000Y-93275833D01*
X82923333Y-93342500D01*
X82923333Y-93709166D01*
X83556666Y-93709166D02*
X83556666Y-93342500D01*
X83523333Y-93275833D01*
X83456666Y-93242500D01*
X83323333Y-93242500D01*
X83256666Y-93275833D01*
X83556666Y-93675833D02*
X83490000Y-93709166D01*
X83323333Y-93709166D01*
X83256666Y-93675833D01*
X83223333Y-93609166D01*
X83223333Y-93542500D01*
X83256666Y-93475833D01*
X83323333Y-93442500D01*
X83490000Y-93442500D01*
X83556666Y-93409166D01*
X83790000Y-93242500D02*
X84056666Y-93242500D01*
X83890000Y-93009166D02*
X83890000Y-93609166D01*
X83923333Y-93675833D01*
X83990000Y-93709166D01*
X84056666Y-93709166D01*
X84290000Y-93709166D02*
X84290000Y-93242500D01*
X84290000Y-93009166D02*
X84256666Y-93042500D01*
X84290000Y-93075833D01*
X84323333Y-93042500D01*
X84290000Y-93009166D01*
X84290000Y-93075833D01*
X84923333Y-93675833D02*
X84856666Y-93709166D01*
X84723333Y-93709166D01*
X84656666Y-93675833D01*
X84623333Y-93642500D01*
X84590000Y-93575833D01*
X84590000Y-93375833D01*
X84623333Y-93309166D01*
X84656666Y-93275833D01*
X84723333Y-93242500D01*
X84856666Y-93242500D01*
X84923333Y-93275833D01*
X85190000Y-93675833D02*
X85256666Y-93709166D01*
X85390000Y-93709166D01*
X85456666Y-93675833D01*
X85490000Y-93609166D01*
X85490000Y-93575833D01*
X85456666Y-93509166D01*
X85390000Y-93475833D01*
X85290000Y-93475833D01*
X85223333Y-93442500D01*
X85190000Y-93375833D01*
X85190000Y-93342500D01*
X85223333Y-93275833D01*
X85290000Y-93242500D01*
X85390000Y-93242500D01*
X85456666Y-93275833D01*
X86323333Y-93709166D02*
X86323333Y-93009166D01*
X86323333Y-93275833D02*
X86390000Y-93242500D01*
X86523333Y-93242500D01*
X86590000Y-93275833D01*
X86623333Y-93309166D01*
X86656666Y-93375833D01*
X86656666Y-93575833D01*
X86623333Y-93642500D01*
X86590000Y-93675833D01*
X86523333Y-93709166D01*
X86390000Y-93709166D01*
X86323333Y-93675833D01*
X86890000Y-93242500D02*
X87056666Y-93709166D01*
X87223333Y-93242500D02*
X87056666Y-93709166D01*
X86990000Y-93875833D01*
X86956666Y-93909166D01*
X86890000Y-93942500D01*
X88023333Y-93009166D02*
X88023333Y-93575833D01*
X88056666Y-93642500D01*
X88090000Y-93675833D01*
X88156666Y-93709166D01*
X88290000Y-93709166D01*
X88356666Y-93675833D01*
X88390000Y-93642500D01*
X88423333Y-93575833D01*
X88423333Y-93009166D01*
X88890000Y-93375833D02*
X88890000Y-93709166D01*
X88656666Y-93009166D02*
X88890000Y-93375833D01*
X89123333Y-93009166D01*
X89490000Y-93009166D02*
X89623333Y-93009166D01*
X89690000Y-93042500D01*
X89756666Y-93109166D01*
X89790000Y-93242500D01*
X89790000Y-93475833D01*
X89756666Y-93609166D01*
X89690000Y-93675833D01*
X89623333Y-93709166D01*
X89490000Y-93709166D01*
X89423333Y-93675833D01*
X89356666Y-93609166D01*
X89323333Y-93475833D01*
X89323333Y-93242500D01*
X89356666Y-93109166D01*
X89423333Y-93042500D01*
X89490000Y-93009166D01*
X65673333Y-94884166D02*
X65673333Y-94184166D01*
X65973333Y-94884166D02*
X65973333Y-94517500D01*
X65940000Y-94450833D01*
X65873333Y-94417500D01*
X65773333Y-94417500D01*
X65706666Y-94450833D01*
X65673333Y-94484166D01*
X66206666Y-94417500D02*
X66473333Y-94417500D01*
X66306666Y-94184166D02*
X66306666Y-94784166D01*
X66340000Y-94850833D01*
X66406666Y-94884166D01*
X66473333Y-94884166D01*
X66606666Y-94417500D02*
X66873333Y-94417500D01*
X66706666Y-94184166D02*
X66706666Y-94784166D01*
X66740000Y-94850833D01*
X66806666Y-94884166D01*
X66873333Y-94884166D01*
X67106666Y-94417500D02*
X67106666Y-95117500D01*
X67106666Y-94450833D02*
X67173333Y-94417500D01*
X67306666Y-94417500D01*
X67373333Y-94450833D01*
X67406666Y-94484166D01*
X67440000Y-94550833D01*
X67440000Y-94750833D01*
X67406666Y-94817500D01*
X67373333Y-94850833D01*
X67306666Y-94884166D01*
X67173333Y-94884166D01*
X67106666Y-94850833D01*
X67706666Y-94850833D02*
X67773333Y-94884166D01*
X67906666Y-94884166D01*
X67973333Y-94850833D01*
X68006666Y-94784166D01*
X68006666Y-94750833D01*
X67973333Y-94684166D01*
X67906666Y-94650833D01*
X67806666Y-94650833D01*
X67740000Y-94617500D01*
X67706666Y-94550833D01*
X67706666Y-94517500D01*
X67740000Y-94450833D01*
X67806666Y-94417500D01*
X67906666Y-94417500D01*
X67973333Y-94450833D01*
X68306666Y-94817500D02*
X68340000Y-94850833D01*
X68306666Y-94884166D01*
X68273333Y-94850833D01*
X68306666Y-94817500D01*
X68306666Y-94884166D01*
X68306666Y-94450833D02*
X68340000Y-94484166D01*
X68306666Y-94517500D01*
X68273333Y-94484166D01*
X68306666Y-94450833D01*
X68306666Y-94517500D01*
X69140000Y-94150833D02*
X68540000Y-95050833D01*
X69873333Y-94150833D02*
X69273333Y-95050833D01*
X70406666Y-94417500D02*
X70406666Y-94984166D01*
X70373333Y-95050833D01*
X70340000Y-95084166D01*
X70273333Y-95117500D01*
X70173333Y-95117500D01*
X70106666Y-95084166D01*
X70406666Y-94850833D02*
X70340000Y-94884166D01*
X70206666Y-94884166D01*
X70140000Y-94850833D01*
X70106666Y-94817500D01*
X70073333Y-94750833D01*
X70073333Y-94550833D01*
X70106666Y-94484166D01*
X70140000Y-94450833D01*
X70206666Y-94417500D01*
X70340000Y-94417500D01*
X70406666Y-94450833D01*
X70740000Y-94884166D02*
X70740000Y-94417500D01*
X70740000Y-94184166D02*
X70706666Y-94217500D01*
X70740000Y-94250833D01*
X70773333Y-94217500D01*
X70740000Y-94184166D01*
X70740000Y-94250833D01*
X70973333Y-94417500D02*
X71240000Y-94417500D01*
X71073333Y-94184166D02*
X71073333Y-94784166D01*
X71106666Y-94850833D01*
X71173333Y-94884166D01*
X71240000Y-94884166D01*
X71473333Y-94884166D02*
X71473333Y-94184166D01*
X71773333Y-94884166D02*
X71773333Y-94517500D01*
X71740000Y-94450833D01*
X71673333Y-94417500D01*
X71573333Y-94417500D01*
X71506666Y-94450833D01*
X71473333Y-94484166D01*
X72406666Y-94417500D02*
X72406666Y-94884166D01*
X72106666Y-94417500D02*
X72106666Y-94784166D01*
X72140000Y-94850833D01*
X72206666Y-94884166D01*
X72306666Y-94884166D01*
X72373333Y-94850833D01*
X72406666Y-94817500D01*
X72740000Y-94884166D02*
X72740000Y-94184166D01*
X72740000Y-94450833D02*
X72806666Y-94417500D01*
X72940000Y-94417500D01*
X73006666Y-94450833D01*
X73040000Y-94484166D01*
X73073333Y-94550833D01*
X73073333Y-94750833D01*
X73040000Y-94817500D01*
X73006666Y-94850833D01*
X72940000Y-94884166D01*
X72806666Y-94884166D01*
X72740000Y-94850833D01*
X73373333Y-94817500D02*
X73406666Y-94850833D01*
X73373333Y-94884166D01*
X73340000Y-94850833D01*
X73373333Y-94817500D01*
X73373333Y-94884166D01*
X74006666Y-94850833D02*
X73940000Y-94884166D01*
X73806666Y-94884166D01*
X73740000Y-94850833D01*
X73706666Y-94817500D01*
X73673333Y-94750833D01*
X73673333Y-94550833D01*
X73706666Y-94484166D01*
X73740000Y-94450833D01*
X73806666Y-94417500D01*
X73940000Y-94417500D01*
X74006666Y-94450833D01*
X74406666Y-94884166D02*
X74340000Y-94850833D01*
X74306666Y-94817500D01*
X74273333Y-94750833D01*
X74273333Y-94550833D01*
X74306666Y-94484166D01*
X74340000Y-94450833D01*
X74406666Y-94417500D01*
X74506666Y-94417500D01*
X74573333Y-94450833D01*
X74606666Y-94484166D01*
X74640000Y-94550833D01*
X74640000Y-94750833D01*
X74606666Y-94817500D01*
X74573333Y-94850833D01*
X74506666Y-94884166D01*
X74406666Y-94884166D01*
X74940000Y-94884166D02*
X74940000Y-94417500D01*
X74940000Y-94484166D02*
X74973333Y-94450833D01*
X75040000Y-94417500D01*
X75140000Y-94417500D01*
X75206666Y-94450833D01*
X75240000Y-94517500D01*
X75240000Y-94884166D01*
X75240000Y-94517500D02*
X75273333Y-94450833D01*
X75340000Y-94417500D01*
X75440000Y-94417500D01*
X75506666Y-94450833D01*
X75540000Y-94517500D01*
X75540000Y-94884166D01*
X76373333Y-94150833D02*
X75773333Y-95050833D01*
X76606666Y-94884166D02*
X76606666Y-94417500D01*
X76606666Y-94484166D02*
X76640000Y-94450833D01*
X76706666Y-94417500D01*
X76806666Y-94417500D01*
X76873333Y-94450833D01*
X76906666Y-94517500D01*
X76906666Y-94884166D01*
X76906666Y-94517500D02*
X76940000Y-94450833D01*
X77006666Y-94417500D01*
X77106666Y-94417500D01*
X77173333Y-94450833D01*
X77206666Y-94517500D01*
X77206666Y-94884166D01*
X77840000Y-94884166D02*
X77840000Y-94517500D01*
X77806666Y-94450833D01*
X77740000Y-94417500D01*
X77606666Y-94417500D01*
X77540000Y-94450833D01*
X77840000Y-94850833D02*
X77773333Y-94884166D01*
X77606666Y-94884166D01*
X77540000Y-94850833D01*
X77506666Y-94784166D01*
X77506666Y-94717500D01*
X77540000Y-94650833D01*
X77606666Y-94617500D01*
X77773333Y-94617500D01*
X77840000Y-94584166D01*
X78073333Y-94417500D02*
X78340000Y-94417500D01*
X78173333Y-94184166D02*
X78173333Y-94784166D01*
X78206666Y-94850833D01*
X78273333Y-94884166D01*
X78340000Y-94884166D01*
X78573333Y-94884166D02*
X78573333Y-94184166D01*
X78873333Y-94884166D02*
X78873333Y-94517500D01*
X78840000Y-94450833D01*
X78773333Y-94417500D01*
X78673333Y-94417500D01*
X78606666Y-94450833D01*
X78573333Y-94484166D01*
X79206666Y-94884166D02*
X79206666Y-94417500D01*
X79206666Y-94184166D02*
X79173333Y-94217500D01*
X79206666Y-94250833D01*
X79240000Y-94217500D01*
X79206666Y-94184166D01*
X79206666Y-94250833D01*
X79806666Y-94850833D02*
X79740000Y-94884166D01*
X79606666Y-94884166D01*
X79540000Y-94850833D01*
X79506666Y-94784166D01*
X79506666Y-94517500D01*
X79540000Y-94450833D01*
X79606666Y-94417500D01*
X79740000Y-94417500D01*
X79806666Y-94450833D01*
X79840000Y-94517500D01*
X79840000Y-94584166D01*
X79506666Y-94650833D01*
X80440000Y-94417500D02*
X80440000Y-94884166D01*
X80140000Y-94417500D02*
X80140000Y-94784166D01*
X80173333Y-94850833D01*
X80240000Y-94884166D01*
X80340000Y-94884166D01*
X80406666Y-94850833D01*
X80440000Y-94817500D01*
X80873333Y-94884166D02*
X80806666Y-94850833D01*
X80773333Y-94784166D01*
X80773333Y-94184166D01*
X81140000Y-94884166D02*
X81140000Y-94184166D01*
X81440000Y-94884166D02*
X81440000Y-94517500D01*
X81406666Y-94450833D01*
X81340000Y-94417500D01*
X81240000Y-94417500D01*
X81173333Y-94450833D01*
X81140000Y-94484166D01*
X82273333Y-94150833D02*
X81673333Y-95050833D01*
X82473333Y-94850833D02*
X82573333Y-94884166D01*
X82740000Y-94884166D01*
X82806666Y-94850833D01*
X82840000Y-94817500D01*
X82873333Y-94750833D01*
X82873333Y-94684166D01*
X82840000Y-94617500D01*
X82806666Y-94584166D01*
X82740000Y-94550833D01*
X82606666Y-94517500D01*
X82540000Y-94484166D01*
X82506666Y-94450833D01*
X82473333Y-94384166D01*
X82473333Y-94317500D01*
X82506666Y-94250833D01*
X82540000Y-94217500D01*
X82606666Y-94184166D01*
X82773333Y-94184166D01*
X82873333Y-94217500D01*
X83573333Y-94817500D02*
X83540000Y-94850833D01*
X83440000Y-94884166D01*
X83373333Y-94884166D01*
X83273333Y-94850833D01*
X83206666Y-94784166D01*
X83173333Y-94717500D01*
X83140000Y-94584166D01*
X83140000Y-94484166D01*
X83173333Y-94350833D01*
X83206666Y-94284166D01*
X83273333Y-94217500D01*
X83373333Y-94184166D01*
X83440000Y-94184166D01*
X83540000Y-94217500D01*
X83573333Y-94250833D01*
X83873333Y-94617500D02*
X84406666Y-94617500D01*
X84840000Y-94484166D02*
X84773333Y-94450833D01*
X84740000Y-94417500D01*
X84706666Y-94350833D01*
X84706666Y-94317500D01*
X84740000Y-94250833D01*
X84773333Y-94217500D01*
X84840000Y-94184166D01*
X84973333Y-94184166D01*
X85040000Y-94217500D01*
X85073333Y-94250833D01*
X85106666Y-94317500D01*
X85106666Y-94350833D01*
X85073333Y-94417500D01*
X85040000Y-94450833D01*
X84973333Y-94484166D01*
X84840000Y-94484166D01*
X84773333Y-94517500D01*
X84740000Y-94550833D01*
X84706666Y-94617500D01*
X84706666Y-94750833D01*
X84740000Y-94817500D01*
X84773333Y-94850833D01*
X84840000Y-94884166D01*
X84973333Y-94884166D01*
X85040000Y-94850833D01*
X85073333Y-94817500D01*
X85106666Y-94750833D01*
X85106666Y-94617500D01*
X85073333Y-94550833D01*
X85040000Y-94517500D01*
X84973333Y-94484166D01*
X85506666Y-94484166D02*
X85440000Y-94450833D01*
X85406666Y-94417500D01*
X85373333Y-94350833D01*
X85373333Y-94317500D01*
X85406666Y-94250833D01*
X85440000Y-94217500D01*
X85506666Y-94184166D01*
X85640000Y-94184166D01*
X85706666Y-94217500D01*
X85740000Y-94250833D01*
X85773333Y-94317500D01*
X85773333Y-94350833D01*
X85740000Y-94417500D01*
X85706666Y-94450833D01*
X85640000Y-94484166D01*
X85506666Y-94484166D01*
X85440000Y-94517500D01*
X85406666Y-94550833D01*
X85373333Y-94617500D01*
X85373333Y-94750833D01*
X85406666Y-94817500D01*
X85440000Y-94850833D01*
X85506666Y-94884166D01*
X85640000Y-94884166D01*
X85706666Y-94850833D01*
X85740000Y-94817500D01*
X85773333Y-94750833D01*
X85773333Y-94617500D01*
X85740000Y-94550833D01*
X85706666Y-94517500D01*
X85640000Y-94484166D01*
X85973333Y-94184166D02*
X86206666Y-94884166D01*
X86440000Y-94184166D01*
X87006666Y-94884166D02*
X86673333Y-94884166D01*
X86673333Y-94184166D01*
X87073333Y-94950833D02*
X87606666Y-94950833D01*
X87673333Y-94184166D02*
X88073333Y-94184166D01*
X87873333Y-94884166D02*
X87873333Y-94184166D01*
X88406666Y-94884166D02*
X88340000Y-94850833D01*
X88306666Y-94817500D01*
X88273333Y-94750833D01*
X88273333Y-94550833D01*
X88306666Y-94484166D01*
X88340000Y-94450833D01*
X88406666Y-94417500D01*
X88506666Y-94417500D01*
X88573333Y-94450833D01*
X88606666Y-94484166D01*
X88640000Y-94550833D01*
X88640000Y-94750833D01*
X88606666Y-94817500D01*
X88573333Y-94850833D01*
X88506666Y-94884166D01*
X88406666Y-94884166D01*
X88906666Y-94850833D02*
X88973333Y-94884166D01*
X89106666Y-94884166D01*
X89173333Y-94850833D01*
X89206666Y-94784166D01*
X89206666Y-94750833D01*
X89173333Y-94684166D01*
X89106666Y-94650833D01*
X89006666Y-94650833D01*
X88940000Y-94617500D01*
X88906666Y-94550833D01*
X88906666Y-94517500D01*
X88940000Y-94450833D01*
X89006666Y-94417500D01*
X89106666Y-94417500D01*
X89173333Y-94450833D01*
X89606666Y-94884166D02*
X89540000Y-94850833D01*
X89506666Y-94784166D01*
X89506666Y-94184166D01*
X89873333Y-94884166D02*
X89873333Y-94417500D01*
X89873333Y-94184166D02*
X89840000Y-94217500D01*
X89873333Y-94250833D01*
X89906666Y-94217500D01*
X89873333Y-94184166D01*
X89873333Y-94250833D01*
X90206666Y-94417500D02*
X90206666Y-94884166D01*
X90206666Y-94484166D02*
X90240000Y-94450833D01*
X90306666Y-94417500D01*
X90406666Y-94417500D01*
X90473333Y-94450833D01*
X90506666Y-94517500D01*
X90506666Y-94884166D01*
X90840000Y-94884166D02*
X90840000Y-94184166D01*
X90906666Y-94617500D02*
X91106666Y-94884166D01*
X91106666Y-94417500D02*
X90840000Y-94684166D01*
X91906666Y-94150833D02*
X91306666Y-95050833D01*
D10*
X65898571Y-88034761D02*
X66041428Y-88082380D01*
X66279523Y-88082380D01*
X66374761Y-88034761D01*
X66422380Y-87987142D01*
X66470000Y-87891904D01*
X66470000Y-87796666D01*
X66422380Y-87701428D01*
X66374761Y-87653809D01*
X66279523Y-87606190D01*
X66089047Y-87558571D01*
X65993809Y-87510952D01*
X65946190Y-87463333D01*
X65898571Y-87368095D01*
X65898571Y-87272857D01*
X65946190Y-87177619D01*
X65993809Y-87130000D01*
X66089047Y-87082380D01*
X66327142Y-87082380D01*
X66470000Y-87130000D01*
X67470000Y-87987142D02*
X67422380Y-88034761D01*
X67279523Y-88082380D01*
X67184285Y-88082380D01*
X67041428Y-88034761D01*
X66946190Y-87939523D01*
X66898571Y-87844285D01*
X66850952Y-87653809D01*
X66850952Y-87510952D01*
X66898571Y-87320476D01*
X66946190Y-87225238D01*
X67041428Y-87130000D01*
X67184285Y-87082380D01*
X67279523Y-87082380D01*
X67422380Y-87130000D01*
X67470000Y-87177619D01*
X67898571Y-87701428D02*
X68660476Y-87701428D01*
X69279523Y-87510952D02*
X69184285Y-87463333D01*
X69136666Y-87415714D01*
X69089047Y-87320476D01*
X69089047Y-87272857D01*
X69136666Y-87177619D01*
X69184285Y-87130000D01*
X69279523Y-87082380D01*
X69470000Y-87082380D01*
X69565238Y-87130000D01*
X69612857Y-87177619D01*
X69660476Y-87272857D01*
X69660476Y-87320476D01*
X69612857Y-87415714D01*
X69565238Y-87463333D01*
X69470000Y-87510952D01*
X69279523Y-87510952D01*
X69184285Y-87558571D01*
X69136666Y-87606190D01*
X69089047Y-87701428D01*
X69089047Y-87891904D01*
X69136666Y-87987142D01*
X69184285Y-88034761D01*
X69279523Y-88082380D01*
X69470000Y-88082380D01*
X69565238Y-88034761D01*
X69612857Y-87987142D01*
X69660476Y-87891904D01*
X69660476Y-87701428D01*
X69612857Y-87606190D01*
X69565238Y-87558571D01*
X69470000Y-87510952D01*
X70231904Y-87510952D02*
X70136666Y-87463333D01*
X70089047Y-87415714D01*
X70041428Y-87320476D01*
X70041428Y-87272857D01*
X70089047Y-87177619D01*
X70136666Y-87130000D01*
X70231904Y-87082380D01*
X70422380Y-87082380D01*
X70517619Y-87130000D01*
X70565238Y-87177619D01*
X70612857Y-87272857D01*
X70612857Y-87320476D01*
X70565238Y-87415714D01*
X70517619Y-87463333D01*
X70422380Y-87510952D01*
X70231904Y-87510952D01*
X70136666Y-87558571D01*
X70089047Y-87606190D01*
X70041428Y-87701428D01*
X70041428Y-87891904D01*
X70089047Y-87987142D01*
X70136666Y-88034761D01*
X70231904Y-88082380D01*
X70422380Y-88082380D01*
X70517619Y-88034761D01*
X70565238Y-87987142D01*
X70612857Y-87891904D01*
X70612857Y-87701428D01*
X70565238Y-87606190D01*
X70517619Y-87558571D01*
X70422380Y-87510952D01*
X71755714Y-87034761D02*
X70898571Y-88320476D01*
X72041428Y-88034761D02*
X72184285Y-88082380D01*
X72422380Y-88082380D01*
X72517619Y-88034761D01*
X72565238Y-87987142D01*
X72612857Y-87891904D01*
X72612857Y-87796666D01*
X72565238Y-87701428D01*
X72517619Y-87653809D01*
X72422380Y-87606190D01*
X72231904Y-87558571D01*
X72136666Y-87510952D01*
X72089047Y-87463333D01*
X72041428Y-87368095D01*
X72041428Y-87272857D01*
X72089047Y-87177619D01*
X72136666Y-87130000D01*
X72231904Y-87082380D01*
X72470000Y-87082380D01*
X72612857Y-87130000D01*
X73612857Y-87987142D02*
X73565238Y-88034761D01*
X73422380Y-88082380D01*
X73327142Y-88082380D01*
X73184285Y-88034761D01*
X73089047Y-87939523D01*
X73041428Y-87844285D01*
X72993809Y-87653809D01*
X72993809Y-87510952D01*
X73041428Y-87320476D01*
X73089047Y-87225238D01*
X73184285Y-87130000D01*
X73327142Y-87082380D01*
X73422380Y-87082380D01*
X73565238Y-87130000D01*
X73612857Y-87177619D01*
X74041428Y-87701428D02*
X74803333Y-87701428D01*
X75422380Y-87510952D02*
X75327142Y-87463333D01*
X75279523Y-87415714D01*
X75231904Y-87320476D01*
X75231904Y-87272857D01*
X75279523Y-87177619D01*
X75327142Y-87130000D01*
X75422380Y-87082380D01*
X75612857Y-87082380D01*
X75708095Y-87130000D01*
X75755714Y-87177619D01*
X75803333Y-87272857D01*
X75803333Y-87320476D01*
X75755714Y-87415714D01*
X75708095Y-87463333D01*
X75612857Y-87510952D01*
X75422380Y-87510952D01*
X75327142Y-87558571D01*
X75279523Y-87606190D01*
X75231904Y-87701428D01*
X75231904Y-87891904D01*
X75279523Y-87987142D01*
X75327142Y-88034761D01*
X75422380Y-88082380D01*
X75612857Y-88082380D01*
X75708095Y-88034761D01*
X75755714Y-87987142D01*
X75803333Y-87891904D01*
X75803333Y-87701428D01*
X75755714Y-87606190D01*
X75708095Y-87558571D01*
X75612857Y-87510952D01*
X76374761Y-87510952D02*
X76279523Y-87463333D01*
X76231904Y-87415714D01*
X76184285Y-87320476D01*
X76184285Y-87272857D01*
X76231904Y-87177619D01*
X76279523Y-87130000D01*
X76374761Y-87082380D01*
X76565238Y-87082380D01*
X76660476Y-87130000D01*
X76708095Y-87177619D01*
X76755714Y-87272857D01*
X76755714Y-87320476D01*
X76708095Y-87415714D01*
X76660476Y-87463333D01*
X76565238Y-87510952D01*
X76374761Y-87510952D01*
X76279523Y-87558571D01*
X76231904Y-87606190D01*
X76184285Y-87701428D01*
X76184285Y-87891904D01*
X76231904Y-87987142D01*
X76279523Y-88034761D01*
X76374761Y-88082380D01*
X76565238Y-88082380D01*
X76660476Y-88034761D01*
X76708095Y-87987142D01*
X76755714Y-87891904D01*
X76755714Y-87701428D01*
X76708095Y-87606190D01*
X76660476Y-87558571D01*
X76565238Y-87510952D01*
X77041428Y-87082380D02*
X77374761Y-88082380D01*
X77708095Y-87082380D01*
X78517619Y-88082380D02*
X78041428Y-88082380D01*
X78041428Y-87082380D01*
X79470000Y-87082380D02*
X80041428Y-87082380D01*
X79755714Y-88082380D02*
X79755714Y-87082380D01*
X80565238Y-87082380D02*
X80755714Y-87082380D01*
X80850952Y-87130000D01*
X80946190Y-87225238D01*
X80993809Y-87415714D01*
X80993809Y-87749047D01*
X80946190Y-87939523D01*
X80850952Y-88034761D01*
X80755714Y-88082380D01*
X80565238Y-88082380D01*
X80470000Y-88034761D01*
X80374761Y-87939523D01*
X80327142Y-87749047D01*
X80327142Y-87415714D01*
X80374761Y-87225238D01*
X80470000Y-87130000D01*
X80565238Y-87082380D01*
X81374761Y-88034761D02*
X81517619Y-88082380D01*
X81755714Y-88082380D01*
X81850952Y-88034761D01*
X81898571Y-87987142D01*
X81946190Y-87891904D01*
X81946190Y-87796666D01*
X81898571Y-87701428D01*
X81850952Y-87653809D01*
X81755714Y-87606190D01*
X81565238Y-87558571D01*
X81470000Y-87510952D01*
X81422380Y-87463333D01*
X81374761Y-87368095D01*
X81374761Y-87272857D01*
X81422380Y-87177619D01*
X81470000Y-87130000D01*
X81565238Y-87082380D01*
X81803333Y-87082380D01*
X81946190Y-87130000D01*
X82850952Y-88082380D02*
X82374761Y-88082380D01*
X82374761Y-87082380D01*
X83184285Y-88082380D02*
X83184285Y-87082380D01*
X83660476Y-88082380D02*
X83660476Y-87082380D01*
X84231904Y-88082380D01*
X84231904Y-87082380D01*
X84708095Y-88082380D02*
X84708095Y-87082380D01*
X85279523Y-88082380D02*
X84850952Y-87510952D01*
X85279523Y-87082380D02*
X84708095Y-87653809D01*
X86470000Y-88082380D02*
X86470000Y-87082380D01*
X86850952Y-87082380D01*
X86946190Y-87130000D01*
X86993809Y-87177619D01*
X87041428Y-87272857D01*
X87041428Y-87415714D01*
X86993809Y-87510952D01*
X86946190Y-87558571D01*
X86850952Y-87606190D01*
X86470000Y-87606190D01*
X88041428Y-87987142D02*
X87993809Y-88034761D01*
X87850952Y-88082380D01*
X87755714Y-88082380D01*
X87612857Y-88034761D01*
X87517619Y-87939523D01*
X87470000Y-87844285D01*
X87422380Y-87653809D01*
X87422380Y-87510952D01*
X87470000Y-87320476D01*
X87517619Y-87225238D01*
X87612857Y-87130000D01*
X87755714Y-87082380D01*
X87850952Y-87082380D01*
X87993809Y-87130000D01*
X88041428Y-87177619D01*
X88803333Y-87558571D02*
X88946190Y-87606190D01*
X88993809Y-87653809D01*
X89041428Y-87749047D01*
X89041428Y-87891904D01*
X88993809Y-87987142D01*
X88946190Y-88034761D01*
X88850952Y-88082380D01*
X88470000Y-88082380D01*
X88470000Y-87082380D01*
X88803333Y-87082380D01*
X88898571Y-87130000D01*
X88946190Y-87177619D01*
X88993809Y-87272857D01*
X88993809Y-87368095D01*
X88946190Y-87463333D01*
X88898571Y-87510952D01*
X88803333Y-87558571D01*
X88470000Y-87558571D01*
D12*
%TO.C,TOTX170/173/193/194*%
X125000000Y-50540000D02*
X133700000Y-50540000D01*
X140770000Y-50540000D02*
X136370000Y-50540000D01*
X125000000Y-63760000D02*
X133700000Y-63760000D01*
X140770000Y-63760000D02*
X136300000Y-63760000D01*
X140770000Y-63760000D02*
X140770000Y-50540000D01*
X125000000Y-50540000D02*
X125000000Y-63760000D01*
X129810000Y-50290000D02*
X131810000Y-50290000D01*
%TO.C,TC9231N*%
X85030000Y-40530000D02*
X85030000Y-45990000D01*
X120710000Y-40530000D02*
X85030000Y-40530000D01*
X120710000Y-53450000D02*
X120710000Y-40530000D01*
X85030000Y-53450000D02*
X120710000Y-53450000D01*
X85030000Y-47990000D02*
X85030000Y-53450000D01*
X85030000Y-45990000D02*
G75*
G02*
X85030000Y-47990000I0J-1000000D01*
G01*
%TO.C,TOSLINK TX*%
X120990000Y-66160000D02*
X120990000Y-81900000D01*
X141230000Y-66160000D02*
X141230000Y-81900000D01*
X141230000Y-66160000D02*
X120990000Y-66160000D01*
X141230000Y-81900000D02*
X120990000Y-81900000D01*
X120990000Y-68580000D02*
X120510000Y-68580000D01*
X120990000Y-74030000D02*
X120510000Y-74030000D01*
X120990000Y-79480000D02*
X120510000Y-79480000D01*
D13*
%TO.C,SWITCH*%
X123380000Y-92470000D02*
X125680000Y-92470000D01*
X117080000Y-92470000D02*
X119280000Y-92470000D01*
X117080000Y-87870000D02*
X125680000Y-87870000D01*
D12*
%TO.C,0.1uf*%
X108860000Y-75613335D02*
X108860000Y-75381665D01*
X109580000Y-75613335D02*
X109580000Y-75381665D01*
X73300000Y-44565835D02*
X73300000Y-44334165D01*
X74020000Y-44565835D02*
X74020000Y-44334165D01*
%TO.C,DATA*%
X66610000Y-79440000D02*
X66610000Y-78040000D01*
X68010000Y-79440000D02*
X66610000Y-79440000D01*
X68010000Y-78040000D02*
X68010000Y-79440000D01*
X66610000Y-78040000D02*
X68010000Y-78040000D01*
%TO.C,BCK*%
X66610000Y-73090000D02*
X66610000Y-71690000D01*
X68010000Y-73090000D02*
X66610000Y-73090000D01*
X68010000Y-71690000D02*
X68010000Y-73090000D01*
X66610000Y-71690000D02*
X68010000Y-71690000D01*
%TO.C,LRCK*%
X66610000Y-66740000D02*
X66610000Y-65340000D01*
X68010000Y-66740000D02*
X66610000Y-66740000D01*
X68010000Y-65340000D02*
X68010000Y-66740000D01*
X66610000Y-65340000D02*
X68010000Y-65340000D01*
%TO.C,GND*%
X66610000Y-52770000D02*
X66610000Y-51370000D01*
X68010000Y-52770000D02*
X66610000Y-52770000D01*
X68010000Y-51370000D02*
X68010000Y-52770000D01*
X66610000Y-51370000D02*
X68010000Y-51370000D01*
%TO.C,+5V*%
X66610000Y-34860000D02*
X68010000Y-34860000D01*
X68010000Y-34860000D02*
X68010000Y-36260000D01*
X68010000Y-36260000D02*
X66610000Y-36260000D01*
X66610000Y-36260000D02*
X66610000Y-34860000D01*
%TO.C,33uf*%
X69430000Y-44180000D02*
G75*
G03*
X69430000Y-44180000I-2120000J0D01*
G01*
X69390000Y-44180000D02*
X65230000Y-44180000D01*
X69390000Y-44220000D02*
X65230000Y-44220000D01*
X69389000Y-44260000D02*
X65231000Y-44260000D01*
X69387000Y-44300000D02*
X65233000Y-44300000D01*
X69384000Y-44340000D02*
X65236000Y-44340000D01*
X69381000Y-44380000D02*
X68150000Y-44380000D01*
X66470000Y-44380000D02*
X65239000Y-44380000D01*
X69377000Y-44420000D02*
X68150000Y-44420000D01*
X66470000Y-44420000D02*
X65243000Y-44420000D01*
X69372000Y-44460000D02*
X68150000Y-44460000D01*
X66470000Y-44460000D02*
X65248000Y-44460000D01*
X69366000Y-44500000D02*
X68150000Y-44500000D01*
X66470000Y-44500000D02*
X65254000Y-44500000D01*
X69360000Y-44540000D02*
X68150000Y-44540000D01*
X66470000Y-44540000D02*
X65260000Y-44540000D01*
X69352000Y-44580000D02*
X68150000Y-44580000D01*
X66470000Y-44580000D02*
X65268000Y-44580000D01*
X69344000Y-44620000D02*
X68150000Y-44620000D01*
X66470000Y-44620000D02*
X65276000Y-44620000D01*
X69335000Y-44660000D02*
X68150000Y-44660000D01*
X66470000Y-44660000D02*
X65285000Y-44660000D01*
X69326000Y-44700000D02*
X68150000Y-44700000D01*
X66470000Y-44700000D02*
X65294000Y-44700000D01*
X69315000Y-44740000D02*
X68150000Y-44740000D01*
X66470000Y-44740000D02*
X65305000Y-44740000D01*
X69304000Y-44780000D02*
X68150000Y-44780000D01*
X66470000Y-44780000D02*
X65316000Y-44780000D01*
X69292000Y-44820000D02*
X68150000Y-44820000D01*
X66470000Y-44820000D02*
X65328000Y-44820000D01*
X69278000Y-44860000D02*
X68150000Y-44860000D01*
X66470000Y-44860000D02*
X65342000Y-44860000D01*
X69264000Y-44901000D02*
X68150000Y-44901000D01*
X66470000Y-44901000D02*
X65356000Y-44901000D01*
X69250000Y-44941000D02*
X68150000Y-44941000D01*
X66470000Y-44941000D02*
X65370000Y-44941000D01*
X69234000Y-44981000D02*
X68150000Y-44981000D01*
X66470000Y-44981000D02*
X65386000Y-44981000D01*
X69217000Y-45021000D02*
X68150000Y-45021000D01*
X66470000Y-45021000D02*
X65403000Y-45021000D01*
X69199000Y-45061000D02*
X68150000Y-45061000D01*
X66470000Y-45061000D02*
X65421000Y-45061000D01*
X69180000Y-45101000D02*
X68150000Y-45101000D01*
X66470000Y-45101000D02*
X65440000Y-45101000D01*
X69161000Y-45141000D02*
X68150000Y-45141000D01*
X66470000Y-45141000D02*
X65459000Y-45141000D01*
X69140000Y-45181000D02*
X68150000Y-45181000D01*
X66470000Y-45181000D02*
X65480000Y-45181000D01*
X69118000Y-45221000D02*
X68150000Y-45221000D01*
X66470000Y-45221000D02*
X65502000Y-45221000D01*
X69095000Y-45261000D02*
X68150000Y-45261000D01*
X66470000Y-45261000D02*
X65525000Y-45261000D01*
X69070000Y-45301000D02*
X68150000Y-45301000D01*
X66470000Y-45301000D02*
X65550000Y-45301000D01*
X69045000Y-45341000D02*
X68150000Y-45341000D01*
X66470000Y-45341000D02*
X65575000Y-45341000D01*
X69018000Y-45381000D02*
X68150000Y-45381000D01*
X66470000Y-45381000D02*
X65602000Y-45381000D01*
X68990000Y-45421000D02*
X68150000Y-45421000D01*
X66470000Y-45421000D02*
X65630000Y-45421000D01*
X68960000Y-45461000D02*
X68150000Y-45461000D01*
X66470000Y-45461000D02*
X65660000Y-45461000D01*
X68929000Y-45501000D02*
X68150000Y-45501000D01*
X66470000Y-45501000D02*
X65691000Y-45501000D01*
X68897000Y-45541000D02*
X68150000Y-45541000D01*
X66470000Y-45541000D02*
X65723000Y-45541000D01*
X68862000Y-45581000D02*
X68150000Y-45581000D01*
X66470000Y-45581000D02*
X65758000Y-45581000D01*
X68826000Y-45621000D02*
X68150000Y-45621000D01*
X66470000Y-45621000D02*
X65794000Y-45621000D01*
X68788000Y-45661000D02*
X68150000Y-45661000D01*
X66470000Y-45661000D02*
X65832000Y-45661000D01*
X68748000Y-45701000D02*
X68150000Y-45701000D01*
X66470000Y-45701000D02*
X65872000Y-45701000D01*
X68706000Y-45741000D02*
X68150000Y-45741000D01*
X66470000Y-45741000D02*
X65914000Y-45741000D01*
X68661000Y-45781000D02*
X68150000Y-45781000D01*
X66470000Y-45781000D02*
X65959000Y-45781000D01*
X68614000Y-45821000D02*
X68150000Y-45821000D01*
X66470000Y-45821000D02*
X66006000Y-45821000D01*
X68564000Y-45861000D02*
X68150000Y-45861000D01*
X66470000Y-45861000D02*
X66056000Y-45861000D01*
X68510000Y-45901000D02*
X68150000Y-45901000D01*
X66470000Y-45901000D02*
X66110000Y-45901000D01*
X68452000Y-45941000D02*
X68150000Y-45941000D01*
X66470000Y-45941000D02*
X66168000Y-45941000D01*
X68390000Y-45981000D02*
X68150000Y-45981000D01*
X66470000Y-45981000D02*
X66230000Y-45981000D01*
X68323000Y-46021000D02*
X66297000Y-46021000D01*
X68250000Y-46061000D02*
X66370000Y-46061000D01*
X68169000Y-46101000D02*
X66451000Y-46101000D01*
X68078000Y-46141000D02*
X66542000Y-46141000D01*
X67974000Y-46181000D02*
X66646000Y-46181000D01*
X67847000Y-46221000D02*
X66773000Y-46221000D01*
X67680000Y-46261000D02*
X66940000Y-46261000D01*
X68505000Y-41910199D02*
X68505000Y-42310199D01*
X68705000Y-42110199D02*
X68305000Y-42110199D01*
%TO.C,74HC74*%
X85030000Y-82280000D02*
X85030000Y-83930000D01*
X85030000Y-83930000D02*
X102930000Y-83930000D01*
X102930000Y-83930000D02*
X102930000Y-78630000D01*
X102930000Y-78630000D02*
X85030000Y-78630000D01*
X85030000Y-78630000D02*
X85030000Y-80280000D01*
X85030000Y-80280000D02*
G75*
G02*
X85030000Y-82280000I0J-1000000D01*
G01*
%TO.C,74HC04*%
X85030000Y-68310000D02*
X85030000Y-69960000D01*
X85030000Y-69960000D02*
X102930000Y-69960000D01*
X102930000Y-69960000D02*
X102930000Y-64660000D01*
X102930000Y-64660000D02*
X85030000Y-64660000D01*
X85030000Y-64660000D02*
X85030000Y-66310000D01*
X85030000Y-66310000D02*
G75*
G02*
X85030000Y-68310000I0J-1000000D01*
G01*
%TO.C,TOTX170/173/193/194*%
D13*
X122642380Y-64832380D02*
X122642380Y-64260952D01*
X123642380Y-64546666D02*
X122642380Y-64546666D01*
X122642380Y-63737142D02*
X122642380Y-63546666D01*
X122690000Y-63451428D01*
X122785238Y-63356190D01*
X122975714Y-63308571D01*
X123309047Y-63308571D01*
X123499523Y-63356190D01*
X123594761Y-63451428D01*
X123642380Y-63546666D01*
X123642380Y-63737142D01*
X123594761Y-63832380D01*
X123499523Y-63927619D01*
X123309047Y-63975238D01*
X122975714Y-63975238D01*
X122785238Y-63927619D01*
X122690000Y-63832380D01*
X122642380Y-63737142D01*
X122642380Y-63022857D02*
X122642380Y-62451428D01*
X123642380Y-62737142D02*
X122642380Y-62737142D01*
X122642380Y-62213333D02*
X123642380Y-61546666D01*
X122642380Y-61546666D02*
X123642380Y-62213333D01*
X123642380Y-60641904D02*
X123642380Y-61213333D01*
X123642380Y-60927619D02*
X122642380Y-60927619D01*
X122785238Y-61022857D01*
X122880476Y-61118095D01*
X122928095Y-61213333D01*
X122642380Y-60308571D02*
X122642380Y-59641904D01*
X123642380Y-60070476D01*
X122642380Y-59070476D02*
X122642380Y-58975238D01*
X122690000Y-58880000D01*
X122737619Y-58832380D01*
X122832857Y-58784761D01*
X123023333Y-58737142D01*
X123261428Y-58737142D01*
X123451904Y-58784761D01*
X123547142Y-58832380D01*
X123594761Y-58880000D01*
X123642380Y-58975238D01*
X123642380Y-59070476D01*
X123594761Y-59165714D01*
X123547142Y-59213333D01*
X123451904Y-59260952D01*
X123261428Y-59308571D01*
X123023333Y-59308571D01*
X122832857Y-59260952D01*
X122737619Y-59213333D01*
X122690000Y-59165714D01*
X122642380Y-59070476D01*
X122594761Y-57594285D02*
X123880476Y-58451428D01*
X123642380Y-56737142D02*
X123642380Y-57308571D01*
X123642380Y-57022857D02*
X122642380Y-57022857D01*
X122785238Y-57118095D01*
X122880476Y-57213333D01*
X122928095Y-57308571D01*
X122642380Y-56403809D02*
X122642380Y-55737142D01*
X123642380Y-56165714D01*
X122642380Y-55451428D02*
X122642380Y-54832380D01*
X123023333Y-55165714D01*
X123023333Y-55022857D01*
X123070952Y-54927619D01*
X123118571Y-54880000D01*
X123213809Y-54832380D01*
X123451904Y-54832380D01*
X123547142Y-54880000D01*
X123594761Y-54927619D01*
X123642380Y-55022857D01*
X123642380Y-55308571D01*
X123594761Y-55403809D01*
X123547142Y-55451428D01*
X122594761Y-53689523D02*
X123880476Y-54546666D01*
X123642380Y-52832380D02*
X123642380Y-53403809D01*
X123642380Y-53118095D02*
X122642380Y-53118095D01*
X122785238Y-53213333D01*
X122880476Y-53308571D01*
X122928095Y-53403809D01*
X123642380Y-52356190D02*
X123642380Y-52165714D01*
X123594761Y-52070476D01*
X123547142Y-52022857D01*
X123404285Y-51927619D01*
X123213809Y-51880000D01*
X122832857Y-51880000D01*
X122737619Y-51927619D01*
X122690000Y-51975238D01*
X122642380Y-52070476D01*
X122642380Y-52260952D01*
X122690000Y-52356190D01*
X122737619Y-52403809D01*
X122832857Y-52451428D01*
X123070952Y-52451428D01*
X123166190Y-52403809D01*
X123213809Y-52356190D01*
X123261428Y-52260952D01*
X123261428Y-52070476D01*
X123213809Y-51975238D01*
X123166190Y-51927619D01*
X123070952Y-51880000D01*
X122642380Y-51546666D02*
X122642380Y-50927619D01*
X123023333Y-51260952D01*
X123023333Y-51118095D01*
X123070952Y-51022857D01*
X123118571Y-50975238D01*
X123213809Y-50927619D01*
X123451904Y-50927619D01*
X123547142Y-50975238D01*
X123594761Y-51022857D01*
X123642380Y-51118095D01*
X123642380Y-51403809D01*
X123594761Y-51499047D01*
X123547142Y-51546666D01*
X122594761Y-49784761D02*
X123880476Y-50641904D01*
X123642380Y-48927619D02*
X123642380Y-49499047D01*
X123642380Y-49213333D02*
X122642380Y-49213333D01*
X122785238Y-49308571D01*
X122880476Y-49403809D01*
X122928095Y-49499047D01*
X123642380Y-48451428D02*
X123642380Y-48260952D01*
X123594761Y-48165714D01*
X123547142Y-48118095D01*
X123404285Y-48022857D01*
X123213809Y-47975238D01*
X122832857Y-47975238D01*
X122737619Y-48022857D01*
X122690000Y-48070476D01*
X122642380Y-48165714D01*
X122642380Y-48356190D01*
X122690000Y-48451428D01*
X122737619Y-48499047D01*
X122832857Y-48546666D01*
X123070952Y-48546666D01*
X123166190Y-48499047D01*
X123213809Y-48451428D01*
X123261428Y-48356190D01*
X123261428Y-48165714D01*
X123213809Y-48070476D01*
X123166190Y-48022857D01*
X123070952Y-47975238D01*
X122975714Y-47118095D02*
X123642380Y-47118095D01*
X122594761Y-47356190D02*
X123309047Y-47594285D01*
X123309047Y-46975238D01*
%TO.C,TC9231N*%
X83482380Y-50204285D02*
X83482380Y-49632857D01*
X84482380Y-49918571D02*
X83482380Y-49918571D01*
X84387142Y-48728095D02*
X84434761Y-48775714D01*
X84482380Y-48918571D01*
X84482380Y-49013809D01*
X84434761Y-49156666D01*
X84339523Y-49251904D01*
X84244285Y-49299523D01*
X84053809Y-49347142D01*
X83910952Y-49347142D01*
X83720476Y-49299523D01*
X83625238Y-49251904D01*
X83530000Y-49156666D01*
X83482380Y-49013809D01*
X83482380Y-48918571D01*
X83530000Y-48775714D01*
X83577619Y-48728095D01*
X84482380Y-48251904D02*
X84482380Y-48061428D01*
X84434761Y-47966190D01*
X84387142Y-47918571D01*
X84244285Y-47823333D01*
X84053809Y-47775714D01*
X83672857Y-47775714D01*
X83577619Y-47823333D01*
X83530000Y-47870952D01*
X83482380Y-47966190D01*
X83482380Y-48156666D01*
X83530000Y-48251904D01*
X83577619Y-48299523D01*
X83672857Y-48347142D01*
X83910952Y-48347142D01*
X84006190Y-48299523D01*
X84053809Y-48251904D01*
X84101428Y-48156666D01*
X84101428Y-47966190D01*
X84053809Y-47870952D01*
X84006190Y-47823333D01*
X83910952Y-47775714D01*
X83577619Y-47394761D02*
X83530000Y-47347142D01*
X83482380Y-47251904D01*
X83482380Y-47013809D01*
X83530000Y-46918571D01*
X83577619Y-46870952D01*
X83672857Y-46823333D01*
X83768095Y-46823333D01*
X83910952Y-46870952D01*
X84482380Y-47442380D01*
X84482380Y-46823333D01*
X83482380Y-46490000D02*
X83482380Y-45870952D01*
X83863333Y-46204285D01*
X83863333Y-46061428D01*
X83910952Y-45966190D01*
X83958571Y-45918571D01*
X84053809Y-45870952D01*
X84291904Y-45870952D01*
X84387142Y-45918571D01*
X84434761Y-45966190D01*
X84482380Y-46061428D01*
X84482380Y-46347142D01*
X84434761Y-46442380D01*
X84387142Y-46490000D01*
X84482380Y-44918571D02*
X84482380Y-45490000D01*
X84482380Y-45204285D02*
X83482380Y-45204285D01*
X83625238Y-45299523D01*
X83720476Y-45394761D01*
X83768095Y-45490000D01*
X84482380Y-44490000D02*
X83482380Y-44490000D01*
X84482380Y-43918571D01*
X83482380Y-43918571D01*
%TO.C,TOSLINK TX*%
X113752380Y-77850476D02*
X113752380Y-77279047D01*
X114752380Y-77564761D02*
X113752380Y-77564761D01*
X113752380Y-76755238D02*
X113752380Y-76564761D01*
X113800000Y-76469523D01*
X113895238Y-76374285D01*
X114085714Y-76326666D01*
X114419047Y-76326666D01*
X114609523Y-76374285D01*
X114704761Y-76469523D01*
X114752380Y-76564761D01*
X114752380Y-76755238D01*
X114704761Y-76850476D01*
X114609523Y-76945714D01*
X114419047Y-76993333D01*
X114085714Y-76993333D01*
X113895238Y-76945714D01*
X113800000Y-76850476D01*
X113752380Y-76755238D01*
X114704761Y-75945714D02*
X114752380Y-75802857D01*
X114752380Y-75564761D01*
X114704761Y-75469523D01*
X114657142Y-75421904D01*
X114561904Y-75374285D01*
X114466666Y-75374285D01*
X114371428Y-75421904D01*
X114323809Y-75469523D01*
X114276190Y-75564761D01*
X114228571Y-75755238D01*
X114180952Y-75850476D01*
X114133333Y-75898095D01*
X114038095Y-75945714D01*
X113942857Y-75945714D01*
X113847619Y-75898095D01*
X113800000Y-75850476D01*
X113752380Y-75755238D01*
X113752380Y-75517142D01*
X113800000Y-75374285D01*
X114752380Y-74469523D02*
X114752380Y-74945714D01*
X113752380Y-74945714D01*
X114752380Y-74136190D02*
X113752380Y-74136190D01*
X114752380Y-73660000D02*
X113752380Y-73660000D01*
X114752380Y-73088571D01*
X113752380Y-73088571D01*
X114752380Y-72612380D02*
X113752380Y-72612380D01*
X114752380Y-72040952D02*
X114180952Y-72469523D01*
X113752380Y-72040952D02*
X114323809Y-72612380D01*
X113752380Y-70993333D02*
X113752380Y-70421904D01*
X114752380Y-70707619D02*
X113752380Y-70707619D01*
X113752380Y-70183809D02*
X114752380Y-69517142D01*
X113752380Y-69517142D02*
X114752380Y-70183809D01*
%TO.C,SWITCH*%
X118280000Y-86974761D02*
X118422857Y-87022380D01*
X118660952Y-87022380D01*
X118756190Y-86974761D01*
X118803809Y-86927142D01*
X118851428Y-86831904D01*
X118851428Y-86736666D01*
X118803809Y-86641428D01*
X118756190Y-86593809D01*
X118660952Y-86546190D01*
X118470476Y-86498571D01*
X118375238Y-86450952D01*
X118327619Y-86403333D01*
X118280000Y-86308095D01*
X118280000Y-86212857D01*
X118327619Y-86117619D01*
X118375238Y-86070000D01*
X118470476Y-86022380D01*
X118708571Y-86022380D01*
X118851428Y-86070000D01*
X119184761Y-86022380D02*
X119422857Y-87022380D01*
X119613333Y-86308095D01*
X119803809Y-87022380D01*
X120041904Y-86022380D01*
X120422857Y-87022380D02*
X120422857Y-86022380D01*
X120756190Y-86022380D02*
X121327619Y-86022380D01*
X121041904Y-87022380D02*
X121041904Y-86022380D01*
X122232380Y-86927142D02*
X122184761Y-86974761D01*
X122041904Y-87022380D01*
X121946666Y-87022380D01*
X121803809Y-86974761D01*
X121708571Y-86879523D01*
X121660952Y-86784285D01*
X121613333Y-86593809D01*
X121613333Y-86450952D01*
X121660952Y-86260476D01*
X121708571Y-86165238D01*
X121803809Y-86070000D01*
X121946666Y-86022380D01*
X122041904Y-86022380D01*
X122184761Y-86070000D01*
X122232380Y-86117619D01*
X122660952Y-87022380D02*
X122660952Y-86022380D01*
X122660952Y-86498571D02*
X123232380Y-86498571D01*
X123232380Y-87022380D02*
X123232380Y-86022380D01*
%TO.C,0.1uf*%
X107402380Y-76997500D02*
X107402380Y-76902261D01*
X107450000Y-76807023D01*
X107497619Y-76759404D01*
X107592857Y-76711785D01*
X107783333Y-76664166D01*
X108021428Y-76664166D01*
X108211904Y-76711785D01*
X108307142Y-76759404D01*
X108354761Y-76807023D01*
X108402380Y-76902261D01*
X108402380Y-76997500D01*
X108354761Y-77092738D01*
X108307142Y-77140357D01*
X108211904Y-77187976D01*
X108021428Y-77235595D01*
X107783333Y-77235595D01*
X107592857Y-77187976D01*
X107497619Y-77140357D01*
X107450000Y-77092738D01*
X107402380Y-76997500D01*
X108307142Y-76235595D02*
X108354761Y-76187976D01*
X108402380Y-76235595D01*
X108354761Y-76283214D01*
X108307142Y-76235595D01*
X108402380Y-76235595D01*
X108402380Y-75235595D02*
X108402380Y-75807023D01*
X108402380Y-75521309D02*
X107402380Y-75521309D01*
X107545238Y-75616547D01*
X107640476Y-75711785D01*
X107688095Y-75807023D01*
X107735714Y-74378452D02*
X108402380Y-74378452D01*
X107735714Y-74807023D02*
X108259523Y-74807023D01*
X108354761Y-74759404D01*
X108402380Y-74664166D01*
X108402380Y-74521309D01*
X108354761Y-74426071D01*
X108307142Y-74378452D01*
X107735714Y-74045119D02*
X107735714Y-73664166D01*
X108402380Y-73902261D02*
X107545238Y-73902261D01*
X107450000Y-73854642D01*
X107402380Y-73759404D01*
X107402380Y-73664166D01*
X71952380Y-45950000D02*
X71952380Y-45854761D01*
X72000000Y-45759523D01*
X72047619Y-45711904D01*
X72142857Y-45664285D01*
X72333333Y-45616666D01*
X72571428Y-45616666D01*
X72761904Y-45664285D01*
X72857142Y-45711904D01*
X72904761Y-45759523D01*
X72952380Y-45854761D01*
X72952380Y-45950000D01*
X72904761Y-46045238D01*
X72857142Y-46092857D01*
X72761904Y-46140476D01*
X72571428Y-46188095D01*
X72333333Y-46188095D01*
X72142857Y-46140476D01*
X72047619Y-46092857D01*
X72000000Y-46045238D01*
X71952380Y-45950000D01*
X72857142Y-45188095D02*
X72904761Y-45140476D01*
X72952380Y-45188095D01*
X72904761Y-45235714D01*
X72857142Y-45188095D01*
X72952380Y-45188095D01*
X72952380Y-44188095D02*
X72952380Y-44759523D01*
X72952380Y-44473809D02*
X71952380Y-44473809D01*
X72095238Y-44569047D01*
X72190476Y-44664285D01*
X72238095Y-44759523D01*
X72285714Y-43330952D02*
X72952380Y-43330952D01*
X72285714Y-43759523D02*
X72809523Y-43759523D01*
X72904761Y-43711904D01*
X72952380Y-43616666D01*
X72952380Y-43473809D01*
X72904761Y-43378571D01*
X72857142Y-43330952D01*
X72285714Y-42997619D02*
X72285714Y-42616666D01*
X72952380Y-42854761D02*
X72095238Y-42854761D01*
X72000000Y-42807142D01*
X71952380Y-42711904D01*
X71952380Y-42616666D01*
%TO.C,DATA*%
X65810000Y-77744380D02*
X65810000Y-76744380D01*
X66048095Y-76744380D01*
X66190952Y-76792000D01*
X66286190Y-76887238D01*
X66333809Y-76982476D01*
X66381428Y-77172952D01*
X66381428Y-77315809D01*
X66333809Y-77506285D01*
X66286190Y-77601523D01*
X66190952Y-77696761D01*
X66048095Y-77744380D01*
X65810000Y-77744380D01*
X66762380Y-77458666D02*
X67238571Y-77458666D01*
X66667142Y-77744380D02*
X67000476Y-76744380D01*
X67333809Y-77744380D01*
X67524285Y-76744380D02*
X68095714Y-76744380D01*
X67810000Y-77744380D02*
X67810000Y-76744380D01*
X68381428Y-77458666D02*
X68857619Y-77458666D01*
X68286190Y-77744380D02*
X68619523Y-76744380D01*
X68952857Y-77744380D01*
%TO.C,BCK*%
X66381428Y-70870571D02*
X66524285Y-70918190D01*
X66571904Y-70965809D01*
X66619523Y-71061047D01*
X66619523Y-71203904D01*
X66571904Y-71299142D01*
X66524285Y-71346761D01*
X66429047Y-71394380D01*
X66048095Y-71394380D01*
X66048095Y-70394380D01*
X66381428Y-70394380D01*
X66476666Y-70442000D01*
X66524285Y-70489619D01*
X66571904Y-70584857D01*
X66571904Y-70680095D01*
X66524285Y-70775333D01*
X66476666Y-70822952D01*
X66381428Y-70870571D01*
X66048095Y-70870571D01*
X67619523Y-71299142D02*
X67571904Y-71346761D01*
X67429047Y-71394380D01*
X67333809Y-71394380D01*
X67190952Y-71346761D01*
X67095714Y-71251523D01*
X67048095Y-71156285D01*
X67000476Y-70965809D01*
X67000476Y-70822952D01*
X67048095Y-70632476D01*
X67095714Y-70537238D01*
X67190952Y-70442000D01*
X67333809Y-70394380D01*
X67429047Y-70394380D01*
X67571904Y-70442000D01*
X67619523Y-70489619D01*
X68048095Y-71394380D02*
X68048095Y-70394380D01*
X68619523Y-71394380D02*
X68190952Y-70822952D01*
X68619523Y-70394380D02*
X68048095Y-70965809D01*
%TO.C,LRCK*%
X66119523Y-65044380D02*
X65643333Y-65044380D01*
X65643333Y-64044380D01*
X67024285Y-65044380D02*
X66690952Y-64568190D01*
X66452857Y-65044380D02*
X66452857Y-64044380D01*
X66833809Y-64044380D01*
X66929047Y-64092000D01*
X66976666Y-64139619D01*
X67024285Y-64234857D01*
X67024285Y-64377714D01*
X66976666Y-64472952D01*
X66929047Y-64520571D01*
X66833809Y-64568190D01*
X66452857Y-64568190D01*
X68024285Y-64949142D02*
X67976666Y-64996761D01*
X67833809Y-65044380D01*
X67738571Y-65044380D01*
X67595714Y-64996761D01*
X67500476Y-64901523D01*
X67452857Y-64806285D01*
X67405238Y-64615809D01*
X67405238Y-64472952D01*
X67452857Y-64282476D01*
X67500476Y-64187238D01*
X67595714Y-64092000D01*
X67738571Y-64044380D01*
X67833809Y-64044380D01*
X67976666Y-64092000D01*
X68024285Y-64139619D01*
X68452857Y-65044380D02*
X68452857Y-64044380D01*
X69024285Y-65044380D02*
X68595714Y-64472952D01*
X69024285Y-64044380D02*
X68452857Y-64615809D01*
%TO.C,GND*%
X66548095Y-50122000D02*
X66452857Y-50074380D01*
X66310000Y-50074380D01*
X66167142Y-50122000D01*
X66071904Y-50217238D01*
X66024285Y-50312476D01*
X65976666Y-50502952D01*
X65976666Y-50645809D01*
X66024285Y-50836285D01*
X66071904Y-50931523D01*
X66167142Y-51026761D01*
X66310000Y-51074380D01*
X66405238Y-51074380D01*
X66548095Y-51026761D01*
X66595714Y-50979142D01*
X66595714Y-50645809D01*
X66405238Y-50645809D01*
X67024285Y-51074380D02*
X67024285Y-50074380D01*
X67595714Y-51074380D01*
X67595714Y-50074380D01*
X68071904Y-51074380D02*
X68071904Y-50074380D01*
X68310000Y-50074380D01*
X68452857Y-50122000D01*
X68548095Y-50217238D01*
X68595714Y-50312476D01*
X68643333Y-50502952D01*
X68643333Y-50645809D01*
X68595714Y-50836285D01*
X68548095Y-50931523D01*
X68452857Y-51026761D01*
X68310000Y-51074380D01*
X68071904Y-51074380D01*
%TO.C,+5V*%
X66024285Y-34183428D02*
X66786190Y-34183428D01*
X66405238Y-34564380D02*
X66405238Y-33802476D01*
X67738571Y-33564380D02*
X67262380Y-33564380D01*
X67214761Y-34040571D01*
X67262380Y-33992952D01*
X67357619Y-33945333D01*
X67595714Y-33945333D01*
X67690952Y-33992952D01*
X67738571Y-34040571D01*
X67786190Y-34135809D01*
X67786190Y-34373904D01*
X67738571Y-34469142D01*
X67690952Y-34516761D01*
X67595714Y-34564380D01*
X67357619Y-34564380D01*
X67262380Y-34516761D01*
X67214761Y-34469142D01*
X68071904Y-33564380D02*
X68405238Y-34564380D01*
X68738571Y-33564380D01*
%TO.C,33uf*%
X70012380Y-45727619D02*
X70012380Y-45108571D01*
X70393333Y-45441904D01*
X70393333Y-45299047D01*
X70440952Y-45203809D01*
X70488571Y-45156190D01*
X70583809Y-45108571D01*
X70821904Y-45108571D01*
X70917142Y-45156190D01*
X70964761Y-45203809D01*
X71012380Y-45299047D01*
X71012380Y-45584761D01*
X70964761Y-45680000D01*
X70917142Y-45727619D01*
X70012380Y-44775238D02*
X70012380Y-44156190D01*
X70393333Y-44489523D01*
X70393333Y-44346666D01*
X70440952Y-44251428D01*
X70488571Y-44203809D01*
X70583809Y-44156190D01*
X70821904Y-44156190D01*
X70917142Y-44203809D01*
X70964761Y-44251428D01*
X71012380Y-44346666D01*
X71012380Y-44632380D01*
X70964761Y-44727619D01*
X70917142Y-44775238D01*
X70345714Y-43299047D02*
X71012380Y-43299047D01*
X70345714Y-43727619D02*
X70869523Y-43727619D01*
X70964761Y-43680000D01*
X71012380Y-43584761D01*
X71012380Y-43441904D01*
X70964761Y-43346666D01*
X70917142Y-43299047D01*
X70345714Y-42965714D02*
X70345714Y-42584761D01*
X71012380Y-42822857D02*
X70155238Y-42822857D01*
X70060000Y-42775238D01*
X70012380Y-42680000D01*
X70012380Y-42584761D01*
%TO.C,74HC74*%
X83482380Y-84065714D02*
X83482380Y-83399047D01*
X84482380Y-83827619D01*
X83815714Y-82589523D02*
X84482380Y-82589523D01*
X83434761Y-82827619D02*
X84149047Y-83065714D01*
X84149047Y-82446666D01*
X84482380Y-82065714D02*
X83482380Y-82065714D01*
X83958571Y-82065714D02*
X83958571Y-81494285D01*
X84482380Y-81494285D02*
X83482380Y-81494285D01*
X84387142Y-80446666D02*
X84434761Y-80494285D01*
X84482380Y-80637142D01*
X84482380Y-80732380D01*
X84434761Y-80875238D01*
X84339523Y-80970476D01*
X84244285Y-81018095D01*
X84053809Y-81065714D01*
X83910952Y-81065714D01*
X83720476Y-81018095D01*
X83625238Y-80970476D01*
X83530000Y-80875238D01*
X83482380Y-80732380D01*
X83482380Y-80637142D01*
X83530000Y-80494285D01*
X83577619Y-80446666D01*
X83482380Y-80113333D02*
X83482380Y-79446666D01*
X84482380Y-79875238D01*
X83815714Y-78637142D02*
X84482380Y-78637142D01*
X83434761Y-78875238D02*
X84149047Y-79113333D01*
X84149047Y-78494285D01*
%TO.C,74HC04*%
X83482380Y-70095714D02*
X83482380Y-69429047D01*
X84482380Y-69857619D01*
X83815714Y-68619523D02*
X84482380Y-68619523D01*
X83434761Y-68857619D02*
X84149047Y-69095714D01*
X84149047Y-68476666D01*
X84482380Y-68095714D02*
X83482380Y-68095714D01*
X83958571Y-68095714D02*
X83958571Y-67524285D01*
X84482380Y-67524285D02*
X83482380Y-67524285D01*
X84387142Y-66476666D02*
X84434761Y-66524285D01*
X84482380Y-66667142D01*
X84482380Y-66762380D01*
X84434761Y-66905238D01*
X84339523Y-67000476D01*
X84244285Y-67048095D01*
X84053809Y-67095714D01*
X83910952Y-67095714D01*
X83720476Y-67048095D01*
X83625238Y-67000476D01*
X83530000Y-66905238D01*
X83482380Y-66762380D01*
X83482380Y-66667142D01*
X83530000Y-66524285D01*
X83577619Y-66476666D01*
X83482380Y-65857619D02*
X83482380Y-65762380D01*
X83530000Y-65667142D01*
X83577619Y-65619523D01*
X83672857Y-65571904D01*
X83863333Y-65524285D01*
X84101428Y-65524285D01*
X84291904Y-65571904D01*
X84387142Y-65619523D01*
X84434761Y-65667142D01*
X84482380Y-65762380D01*
X84482380Y-65857619D01*
X84434761Y-65952857D01*
X84387142Y-66000476D01*
X84291904Y-66048095D01*
X84101428Y-66095714D01*
X83863333Y-66095714D01*
X83672857Y-66048095D01*
X83577619Y-66000476D01*
X83530000Y-65952857D01*
X83482380Y-65857619D01*
X83815714Y-64667142D02*
X84482380Y-64667142D01*
X83434761Y-64905238D02*
X84149047Y-65143333D01*
X84149047Y-64524285D01*
%TD*%
M02*
