%TF.GenerationSoftware,KiCad,Pcbnew,(5.1.12)-1*%
%TF.CreationDate,2021-11-17T19:51:39+01:00*%
%TF.ProjectId,SC-88VL,53432d38-3856-44c2-9e6b-696361645f70,rev?*%
%TF.SameCoordinates,Original*%
%TF.FileFunction,Soldermask,Top*%
%TF.FilePolarity,Negative*%
%FSLAX46Y46*%
G04 Gerber Fmt 4.6, Leading zero omitted, Abs format (unit mm)*
G04 Created by KiCad (PCBNEW (5.1.12)-1) date 2021-11-17 19:51:39*
%MOMM*%
%LPD*%
G01*
G04 APERTURE LIST*
%ADD10R,1.600000X1.600000*%
%ADD11O,1.600000X1.600000*%
%ADD12O,4.500000X2.500000*%
%ADD13R,4.500000X2.500000*%
%ADD14O,3.400000X3.400000*%
%ADD15O,2.200000X3.500000*%
%ADD16O,1.500000X2.500000*%
%ADD17R,1.500000X2.500000*%
%ADD18R,1.000000X1.000000*%
%ADD19C,1.200000*%
%ADD20R,1.200000X1.200000*%
G04 APERTURE END LIST*
D10*
%TO.C,TC9231N*%
X86360000Y-54610000D03*
D11*
X119380000Y-39370000D03*
X88900000Y-54610000D03*
X116840000Y-39370000D03*
X91440000Y-54610000D03*
X114300000Y-39370000D03*
X93980000Y-54610000D03*
X111760000Y-39370000D03*
X96520000Y-54610000D03*
X109220000Y-39370000D03*
X99060000Y-54610000D03*
X106680000Y-39370000D03*
X101600000Y-54610000D03*
X104140000Y-39370000D03*
X104140000Y-54610000D03*
X101600000Y-39370000D03*
X106680000Y-54610000D03*
X99060000Y-39370000D03*
X109220000Y-54610000D03*
X96520000Y-39370000D03*
X111760000Y-54610000D03*
X93980000Y-39370000D03*
X114300000Y-54610000D03*
X91440000Y-39370000D03*
X116840000Y-54610000D03*
X88900000Y-39370000D03*
X119380000Y-54610000D03*
X86360000Y-39370000D03*
%TD*%
D12*
%TO.C,TOSLINK TX*%
X118110000Y-79480000D03*
X118110000Y-74030000D03*
D13*
X118110000Y-68580000D03*
D14*
X136910000Y-74030000D03*
%TD*%
D15*
%TO.C,SWITCH*%
X125480000Y-90170000D03*
X117280000Y-90170000D03*
D16*
X123380000Y-90170000D03*
X121380000Y-90170000D03*
D17*
X119380000Y-90170000D03*
%TD*%
%TO.C,0.1uf*%
G36*
G01*
X109375000Y-75297500D02*
X109065000Y-75297500D01*
G75*
G02*
X108910000Y-75142500I0J155000D01*
G01*
X108910000Y-74717500D01*
G75*
G02*
X109065000Y-74562500I155000J0D01*
G01*
X109375000Y-74562500D01*
G75*
G02*
X109530000Y-74717500I0J-155000D01*
G01*
X109530000Y-75142500D01*
G75*
G02*
X109375000Y-75297500I-155000J0D01*
G01*
G37*
G36*
G01*
X109375000Y-76432500D02*
X109065000Y-76432500D01*
G75*
G02*
X108910000Y-76277500I0J155000D01*
G01*
X108910000Y-75852500D01*
G75*
G02*
X109065000Y-75697500I155000J0D01*
G01*
X109375000Y-75697500D01*
G75*
G02*
X109530000Y-75852500I0J-155000D01*
G01*
X109530000Y-76277500D01*
G75*
G02*
X109375000Y-76432500I-155000J0D01*
G01*
G37*
%TD*%
%TO.C,0.1uf*%
G36*
G01*
X73815000Y-44250000D02*
X73505000Y-44250000D01*
G75*
G02*
X73350000Y-44095000I0J155000D01*
G01*
X73350000Y-43670000D01*
G75*
G02*
X73505000Y-43515000I155000J0D01*
G01*
X73815000Y-43515000D01*
G75*
G02*
X73970000Y-43670000I0J-155000D01*
G01*
X73970000Y-44095000D01*
G75*
G02*
X73815000Y-44250000I-155000J0D01*
G01*
G37*
G36*
G01*
X73815000Y-45385000D02*
X73505000Y-45385000D01*
G75*
G02*
X73350000Y-45230000I0J155000D01*
G01*
X73350000Y-44805000D01*
G75*
G02*
X73505000Y-44650000I155000J0D01*
G01*
X73815000Y-44650000D01*
G75*
G02*
X73970000Y-44805000I0J-155000D01*
G01*
X73970000Y-45230000D01*
G75*
G02*
X73815000Y-45385000I-155000J0D01*
G01*
G37*
%TD*%
D18*
%TO.C,DATA*%
X67310000Y-78740000D03*
%TD*%
%TO.C,BCK*%
X67310000Y-72390000D03*
%TD*%
%TO.C,LRCK*%
X67310000Y-66040000D03*
%TD*%
%TO.C,GND*%
X67310000Y-52070000D03*
%TD*%
%TO.C,+5V*%
X67310000Y-35560000D03*
%TD*%
D19*
%TO.C,33uf*%
X67310000Y-45180000D03*
D20*
X67310000Y-43180000D03*
%TD*%
D11*
%TO.C,74HC74*%
X86360000Y-77470000D03*
X101600000Y-85090000D03*
X88900000Y-77470000D03*
X99060000Y-85090000D03*
X91440000Y-77470000D03*
X96520000Y-85090000D03*
X93980000Y-77470000D03*
X93980000Y-85090000D03*
X96520000Y-77470000D03*
X91440000Y-85090000D03*
X99060000Y-77470000D03*
X88900000Y-85090000D03*
X101600000Y-77470000D03*
D10*
X86360000Y-85090000D03*
%TD*%
D11*
%TO.C,74HC04*%
X86360000Y-63500000D03*
X101600000Y-71120000D03*
X88900000Y-63500000D03*
X99060000Y-71120000D03*
X91440000Y-63500000D03*
X96520000Y-71120000D03*
X93980000Y-63500000D03*
X93980000Y-71120000D03*
X96520000Y-63500000D03*
X91440000Y-71120000D03*
X99060000Y-63500000D03*
X88900000Y-71120000D03*
X101600000Y-63500000D03*
D10*
X86360000Y-71120000D03*
%TD*%
M02*
