%TF.GenerationSoftware,KiCad,Pcbnew,(5.1.12)-1*%
%TF.CreationDate,2021-11-17T22:05:38+01:00*%
%TF.ProjectId,SC-88VL,53432d38-3856-44c2-9e6b-696361645f70,rev?*%
%TF.SameCoordinates,Original*%
%TF.FileFunction,Copper,L2,Bot*%
%TF.FilePolarity,Positive*%
%FSLAX46Y46*%
G04 Gerber Fmt 4.6, Leading zero omitted, Abs format (unit mm)*
G04 Created by KiCad (PCBNEW (5.1.12)-1) date 2021-11-17 22:05:38*
%MOMM*%
%LPD*%
G01*
G04 APERTURE LIST*
%TA.AperFunction,ComponentPad*%
%ADD10R,2.500000X1.500000*%
%TD*%
%TA.AperFunction,ComponentPad*%
%ADD11O,2.500000X1.500000*%
%TD*%
%TA.AperFunction,ComponentPad*%
%ADD12C,2.500000*%
%TD*%
%TA.AperFunction,ComponentPad*%
%ADD13R,1.600000X1.600000*%
%TD*%
%TA.AperFunction,ComponentPad*%
%ADD14O,1.600000X1.600000*%
%TD*%
%TA.AperFunction,ComponentPad*%
%ADD15O,4.500000X2.500000*%
%TD*%
%TA.AperFunction,ComponentPad*%
%ADD16R,4.500000X2.500000*%
%TD*%
%TA.AperFunction,ComponentPad*%
%ADD17O,2.200000X3.500000*%
%TD*%
%TA.AperFunction,ComponentPad*%
%ADD18O,1.500000X2.500000*%
%TD*%
%TA.AperFunction,ComponentPad*%
%ADD19R,1.500000X2.500000*%
%TD*%
%TA.AperFunction,ComponentPad*%
%ADD20C,1.200000*%
%TD*%
%TA.AperFunction,ComponentPad*%
%ADD21R,1.200000X1.200000*%
%TD*%
%TA.AperFunction,ViaPad*%
%ADD22C,0.800000*%
%TD*%
%TA.AperFunction,Conductor*%
%ADD23C,0.250000*%
%TD*%
G04 APERTURE END LIST*
D10*
%TO.P,TOTX170/173/193/194,1*%
%TO.N,N/C*%
X130810000Y-53340000D03*
D11*
%TO.P,TOTX170/173/193/194,2*%
X130810000Y-55880000D03*
%TO.P,TOTX170/173/193/194,3*%
X130810000Y-58420000D03*
%TO.P,TOTX170/173/193/194,4*%
X130810000Y-60960000D03*
D12*
%TO.P,TOTX170/173/193/194,5*%
X135010000Y-62350000D03*
%TO.P,TOTX170/173/193/194,6*%
X135010000Y-51950000D03*
%TD*%
D13*
%TO.P,TC9231N,1*%
%TO.N,N/C*%
X86360000Y-54610000D03*
D14*
%TO.P,TC9231N,15*%
X119380000Y-39370000D03*
%TO.P,TC9231N,2*%
X88900000Y-54610000D03*
%TO.P,TC9231N,16*%
X116840000Y-39370000D03*
%TO.P,TC9231N,3*%
X91440000Y-54610000D03*
%TO.P,TC9231N,17*%
X114300000Y-39370000D03*
%TO.P,TC9231N,4*%
X93980000Y-54610000D03*
%TO.P,TC9231N,18*%
X111760000Y-39370000D03*
%TO.P,TC9231N,5*%
X96520000Y-54610000D03*
%TO.P,TC9231N,19*%
X109220000Y-39370000D03*
%TO.P,TC9231N,6*%
X99060000Y-54610000D03*
%TO.P,TC9231N,20*%
X106680000Y-39370000D03*
%TO.P,TC9231N,7*%
X101600000Y-54610000D03*
%TO.P,TC9231N,21*%
X104140000Y-39370000D03*
%TO.P,TC9231N,8*%
X104140000Y-54610000D03*
%TO.P,TC9231N,22*%
X101600000Y-39370000D03*
%TO.P,TC9231N,9*%
X106680000Y-54610000D03*
%TO.P,TC9231N,23*%
X99060000Y-39370000D03*
%TO.P,TC9231N,10*%
X109220000Y-54610000D03*
%TO.P,TC9231N,24*%
X96520000Y-39370000D03*
%TO.P,TC9231N,11*%
X111760000Y-54610000D03*
%TO.P,TC9231N,25*%
X93980000Y-39370000D03*
%TO.P,TC9231N,12*%
X114300000Y-54610000D03*
%TO.P,TC9231N,26*%
X91440000Y-39370000D03*
%TO.P,TC9231N,13*%
X116840000Y-54610000D03*
%TO.P,TC9231N,27*%
X88900000Y-39370000D03*
%TO.P,TC9231N,14*%
X119380000Y-54610000D03*
%TO.P,TC9231N,28*%
X86360000Y-39370000D03*
%TD*%
D15*
%TO.P,TOSLINK TX,3*%
%TO.N,N/C*%
X118110000Y-79480000D03*
%TO.P,TOSLINK TX,2*%
X118110000Y-74030000D03*
D16*
%TO.P,TOSLINK TX,1*%
X118110000Y-68580000D03*
%TD*%
D17*
%TO.P,SWITCH,*%
%TO.N,*%
X125480000Y-90170000D03*
X117280000Y-90170000D03*
D18*
%TO.P,SWITCH,3*%
%TO.N,N/C*%
X123380000Y-90170000D03*
%TO.P,SWITCH,2*%
X121380000Y-90170000D03*
D19*
%TO.P,SWITCH,1*%
X119380000Y-90170000D03*
%TD*%
D20*
%TO.P,33uf,2*%
%TO.N,N/C*%
X67310000Y-45180000D03*
D21*
%TO.P,33uf,1*%
X67310000Y-43180000D03*
%TD*%
D14*
%TO.P,74HC74,14*%
%TO.N,N/C*%
X86360000Y-77470000D03*
%TO.P,74HC74,7*%
X101600000Y-85090000D03*
%TO.P,74HC74,13*%
X88900000Y-77470000D03*
%TO.P,74HC74,6*%
X99060000Y-85090000D03*
%TO.P,74HC74,12*%
X91440000Y-77470000D03*
%TO.P,74HC74,5*%
X96520000Y-85090000D03*
%TO.P,74HC74,11*%
X93980000Y-77470000D03*
%TO.P,74HC74,4*%
X93980000Y-85090000D03*
%TO.P,74HC74,10*%
X96520000Y-77470000D03*
%TO.P,74HC74,3*%
X91440000Y-85090000D03*
%TO.P,74HC74,9*%
X99060000Y-77470000D03*
%TO.P,74HC74,2*%
X88900000Y-85090000D03*
%TO.P,74HC74,8*%
X101600000Y-77470000D03*
D13*
%TO.P,74HC74,1*%
X86360000Y-85090000D03*
%TD*%
D14*
%TO.P,74HC04,14*%
%TO.N,N/C*%
X86360000Y-63500000D03*
%TO.P,74HC04,7*%
X101600000Y-71120000D03*
%TO.P,74HC04,13*%
X88900000Y-63500000D03*
%TO.P,74HC04,6*%
X99060000Y-71120000D03*
%TO.P,74HC04,12*%
X91440000Y-63500000D03*
%TO.P,74HC04,5*%
X96520000Y-71120000D03*
%TO.P,74HC04,11*%
X93980000Y-63500000D03*
%TO.P,74HC04,4*%
X93980000Y-71120000D03*
%TO.P,74HC04,10*%
X96520000Y-63500000D03*
%TO.P,74HC04,3*%
X91440000Y-71120000D03*
%TO.P,74HC04,9*%
X99060000Y-63500000D03*
%TO.P,74HC04,2*%
X88900000Y-71120000D03*
%TO.P,74HC04,8*%
X101600000Y-63500000D03*
D13*
%TO.P,74HC04,1*%
X86360000Y-71120000D03*
%TD*%
D22*
%TO.N,*%
X69850000Y-66040000D03*
X69850000Y-78740000D03*
X82550000Y-64770000D03*
X82550000Y-62230000D03*
X82550000Y-46990000D03*
X82550000Y-43180000D03*
X78740000Y-81280000D03*
X78740000Y-64770000D03*
X78740000Y-62230000D03*
X106815000Y-76065000D03*
X78740000Y-57150000D03*
X81280000Y-55880000D03*
X81280000Y-58420000D03*
X92710000Y-73660000D03*
X97790000Y-80010000D03*
X97790000Y-82550000D03*
X99060000Y-80010000D03*
X99060000Y-82550000D03*
X97790000Y-83820000D03*
X95250000Y-83820000D03*
X101600000Y-45720000D03*
X102870000Y-59690000D03*
X102870000Y-66040000D03*
X102870000Y-57150000D03*
X124460000Y-71120000D03*
X111760000Y-68580000D03*
X127000000Y-62230000D03*
X124460000Y-62230000D03*
%TD*%
D23*
%TO.N,*%
X93980000Y-66040000D02*
X99060000Y-71120000D01*
X69850000Y-66040000D02*
X93980000Y-66040000D01*
X69850000Y-78740000D02*
X81280000Y-78740000D01*
X81280000Y-78740000D02*
X88900000Y-71120000D01*
X82550000Y-64770000D02*
X82550000Y-62230000D01*
X82550000Y-46990000D02*
X82550000Y-43180000D01*
X101600000Y-77470000D02*
X101600000Y-81280000D01*
X101600000Y-81280000D02*
X78740000Y-81280000D01*
X78740000Y-81280000D02*
X78740000Y-81280000D01*
X78740000Y-64770000D02*
X78740000Y-62230000D01*
X101600000Y-63500000D02*
X106680000Y-63500000D01*
X106680000Y-75930000D02*
X106815000Y-76065000D01*
X106680000Y-63500000D02*
X106680000Y-75930000D01*
X118110000Y-68580000D02*
X111760000Y-68580000D01*
X107950000Y-68580000D02*
X107950000Y-62230000D01*
X107950000Y-62230000D02*
X99060000Y-62230000D01*
X99060000Y-62230000D02*
X99060000Y-63500000D01*
X91440000Y-54610000D02*
X91440000Y-57150000D01*
X91440000Y-57150000D02*
X99060000Y-57150000D01*
X99060000Y-57150000D02*
X99060000Y-54610000D01*
X99060000Y-54610000D02*
X111760000Y-54610000D01*
X78740000Y-57150000D02*
X78740000Y-57150000D01*
X91440000Y-57150000D02*
X78740000Y-57150000D01*
X121920000Y-89630000D02*
X121380000Y-90170000D01*
X121920000Y-46990000D02*
X121920000Y-89630000D01*
X88900000Y-46990000D02*
X121920000Y-46990000D01*
X88900000Y-39370000D02*
X88900000Y-46990000D01*
X91440000Y-39370000D02*
X91440000Y-36830000D01*
X91440000Y-36830000D02*
X81280000Y-36830000D01*
X81280000Y-36830000D02*
X81280000Y-55880000D01*
X81280000Y-55880000D02*
X81280000Y-55880000D01*
X81280000Y-58420000D02*
X81280000Y-59690000D01*
X81280000Y-59690000D02*
X93980000Y-59690000D01*
X93980000Y-59690000D02*
X93980000Y-63500000D01*
X91440000Y-36830000D02*
X106680000Y-36830000D01*
X106680000Y-36830000D02*
X106680000Y-39370000D01*
X92710000Y-76200000D02*
X91440000Y-77470000D01*
X92710000Y-73660000D02*
X92710000Y-76200000D01*
X92710000Y-76200000D02*
X97790000Y-76200000D01*
X97790000Y-76200000D02*
X97790000Y-80010000D01*
X97790000Y-80010000D02*
X97790000Y-80010000D01*
X97790000Y-82550000D02*
X93980000Y-82550000D01*
X93980000Y-82550000D02*
X93980000Y-85090000D01*
X99060000Y-80010000D02*
X99060000Y-82550000D01*
X97790000Y-83820000D02*
X95250000Y-83820000D01*
X96520000Y-63500000D02*
X96520000Y-60960000D01*
X96520000Y-60960000D02*
X119380000Y-60960000D01*
X119380000Y-60960000D02*
X119380000Y-54610000D01*
X93980000Y-39370000D02*
X93980000Y-41910000D01*
X93980000Y-41910000D02*
X97790000Y-41910000D01*
X97790000Y-41910000D02*
X101600000Y-45720000D01*
X101600000Y-45720000D02*
X101600000Y-45720000D01*
X102870000Y-59690000D02*
X102870000Y-59690000D01*
X102870000Y-69850000D02*
X101600000Y-71120000D01*
X102870000Y-66040000D02*
X102870000Y-69850000D01*
X102870000Y-57150000D02*
X102870000Y-59690000D01*
X111760000Y-68580000D02*
X107950000Y-68580000D01*
X128270000Y-58420000D02*
X130810000Y-58420000D01*
X128270000Y-71120000D02*
X128270000Y-58420000D01*
X124460000Y-71120000D02*
X128270000Y-71120000D01*
X124460000Y-62230000D02*
X127000000Y-62230000D01*
%TD*%
M02*
