%FSLAX45Y45*%
G04 Gerber Fmt 4.5, Leading zero omitted, Abs format (unit mm)*
G04 Created by KiCad (PCBNEW (5.1.12)-1) date 2021-11-17 21:51:34*
%MOMM*%
%LPD*%
G01*
G04 APERTURE LIST*
%TA.AperFunction,Profile*%
%ADD10C,0.050000*%
%TD*%
%ADD11C,0.200000*%
%ADD12C,0.300000*%
G04 APERTURE END LIST*
D10*
X14224000Y-3302000D02*
X14224000Y-9779000D01*
X6477000Y-9779000D02*
X6477000Y-3302000D01*
X14224000Y-9779000D02*
X6477000Y-9779000D01*
X6477000Y-3302000D02*
X14224000Y-3302000D01*
D11*
X13521000Y-7233000D02*
X13861000Y-7573000D01*
X13861000Y-7233000D02*
X13521000Y-7573000D01*
D12*
X6760928Y-10247214D02*
X6760928Y-9947214D01*
X6832357Y-9947214D01*
X6875214Y-9961500D01*
X6903786Y-9990072D01*
X6918071Y-10018643D01*
X6932357Y-10075786D01*
X6932357Y-10118643D01*
X6918071Y-10175786D01*
X6903786Y-10204357D01*
X6875214Y-10232929D01*
X6832357Y-10247214D01*
X6760928Y-10247214D01*
X7060928Y-10247214D02*
X7060928Y-10047214D01*
X7060928Y-10104357D02*
X7075214Y-10075786D01*
X7089500Y-10061500D01*
X7118071Y-10047214D01*
X7146643Y-10047214D01*
X7246643Y-10247214D02*
X7246643Y-10047214D01*
X7246643Y-9947214D02*
X7232357Y-9961500D01*
X7246643Y-9975786D01*
X7260928Y-9961500D01*
X7246643Y-9947214D01*
X7246643Y-9975786D01*
X7432357Y-10247214D02*
X7403786Y-10232929D01*
X7389500Y-10204357D01*
X7389500Y-9947214D01*
X7589500Y-10247214D02*
X7560928Y-10232929D01*
X7546643Y-10204357D01*
X7546643Y-9947214D01*
X7932357Y-10247214D02*
X7932357Y-9947214D01*
X8032357Y-10161500D01*
X8132357Y-9947214D01*
X8132357Y-10247214D01*
X8403786Y-10247214D02*
X8403786Y-10090072D01*
X8389500Y-10061500D01*
X8360928Y-10047214D01*
X8303786Y-10047214D01*
X8275214Y-10061500D01*
X8403786Y-10232929D02*
X8375214Y-10247214D01*
X8303786Y-10247214D01*
X8275214Y-10232929D01*
X8260928Y-10204357D01*
X8260928Y-10175786D01*
X8275214Y-10147214D01*
X8303786Y-10132929D01*
X8375214Y-10132929D01*
X8403786Y-10118643D01*
X8546643Y-10047214D02*
X8546643Y-10347214D01*
X8546643Y-10061500D02*
X8575214Y-10047214D01*
X8632357Y-10047214D01*
X8660928Y-10061500D01*
X8675214Y-10075786D01*
X8689500Y-10104357D01*
X8689500Y-10190072D01*
X8675214Y-10218643D01*
X8660928Y-10232929D01*
X8632357Y-10247214D01*
X8575214Y-10247214D01*
X8546643Y-10232929D01*
X8818071Y-10218643D02*
X8832357Y-10232929D01*
X8818071Y-10247214D01*
X8803786Y-10232929D01*
X8818071Y-10218643D01*
X8818071Y-10247214D01*
X8818071Y-10061500D02*
X8832357Y-10075786D01*
X8818071Y-10090072D01*
X8803786Y-10075786D01*
X8818071Y-10061500D01*
X8818071Y-10090072D01*
X6134500Y-10571500D02*
X6474500Y-10911500D01*
X6474500Y-10571500D02*
X6134500Y-10911500D01*
X6732357Y-10577214D02*
X6918071Y-10577214D01*
X6818071Y-10691500D01*
X6860928Y-10691500D01*
X6889500Y-10705786D01*
X6903786Y-10720072D01*
X6918071Y-10748643D01*
X6918071Y-10820072D01*
X6903786Y-10848643D01*
X6889500Y-10862929D01*
X6860928Y-10877214D01*
X6775214Y-10877214D01*
X6746643Y-10862929D01*
X6732357Y-10848643D01*
X7046643Y-10848643D02*
X7060928Y-10862929D01*
X7046643Y-10877214D01*
X7032357Y-10862929D01*
X7046643Y-10848643D01*
X7046643Y-10877214D01*
X7318071Y-10677214D02*
X7318071Y-10877214D01*
X7246643Y-10562929D02*
X7175214Y-10777214D01*
X7360928Y-10777214D01*
X7532357Y-10577214D02*
X7560928Y-10577214D01*
X7589500Y-10591500D01*
X7603786Y-10605786D01*
X7618071Y-10634357D01*
X7632357Y-10691500D01*
X7632357Y-10762929D01*
X7618071Y-10820072D01*
X7603786Y-10848643D01*
X7589500Y-10862929D01*
X7560928Y-10877214D01*
X7532357Y-10877214D01*
X7503786Y-10862929D01*
X7489500Y-10848643D01*
X7475214Y-10820072D01*
X7460928Y-10762929D01*
X7460928Y-10691500D01*
X7475214Y-10634357D01*
X7489500Y-10605786D01*
X7503786Y-10591500D01*
X7532357Y-10577214D01*
X7818071Y-10577214D02*
X7846643Y-10577214D01*
X7875214Y-10591500D01*
X7889500Y-10605786D01*
X7903786Y-10634357D01*
X7918071Y-10691500D01*
X7918071Y-10762929D01*
X7903786Y-10820072D01*
X7889500Y-10848643D01*
X7875214Y-10862929D01*
X7846643Y-10877214D01*
X7818071Y-10877214D01*
X7789500Y-10862929D01*
X7775214Y-10848643D01*
X7760928Y-10820072D01*
X7746643Y-10762929D01*
X7746643Y-10691500D01*
X7760928Y-10634357D01*
X7775214Y-10605786D01*
X7789500Y-10591500D01*
X7818071Y-10577214D01*
X8046643Y-10877214D02*
X8046643Y-10677214D01*
X8046643Y-10705786D02*
X8060928Y-10691500D01*
X8089500Y-10677214D01*
X8132357Y-10677214D01*
X8160928Y-10691500D01*
X8175214Y-10720072D01*
X8175214Y-10877214D01*
X8175214Y-10720072D02*
X8189500Y-10691500D01*
X8218071Y-10677214D01*
X8260928Y-10677214D01*
X8289500Y-10691500D01*
X8303786Y-10720072D01*
X8303786Y-10877214D01*
X8446643Y-10877214D02*
X8446643Y-10677214D01*
X8446643Y-10705786D02*
X8460928Y-10691500D01*
X8489500Y-10677214D01*
X8532357Y-10677214D01*
X8560928Y-10691500D01*
X8575214Y-10720072D01*
X8575214Y-10877214D01*
X8575214Y-10720072D02*
X8589500Y-10691500D01*
X8618071Y-10677214D01*
X8660928Y-10677214D01*
X8689500Y-10691500D01*
X8703786Y-10720072D01*
X8703786Y-10877214D01*
X9289500Y-10562929D02*
X9032357Y-10948643D01*
X9675214Y-10577214D02*
X9703786Y-10577214D01*
X9732357Y-10591500D01*
X9746643Y-10605786D01*
X9760928Y-10634357D01*
X9775214Y-10691500D01*
X9775214Y-10762929D01*
X9760928Y-10820072D01*
X9746643Y-10848643D01*
X9732357Y-10862929D01*
X9703786Y-10877214D01*
X9675214Y-10877214D01*
X9646643Y-10862929D01*
X9632357Y-10848643D01*
X9618071Y-10820072D01*
X9603786Y-10762929D01*
X9603786Y-10691500D01*
X9618071Y-10634357D01*
X9632357Y-10605786D01*
X9646643Y-10591500D01*
X9675214Y-10577214D01*
X9903786Y-10848643D02*
X9918071Y-10862929D01*
X9903786Y-10877214D01*
X9889500Y-10862929D01*
X9903786Y-10848643D01*
X9903786Y-10877214D01*
X10203786Y-10877214D02*
X10032357Y-10877214D01*
X10118071Y-10877214D02*
X10118071Y-10577214D01*
X10089500Y-10620072D01*
X10060928Y-10648643D01*
X10032357Y-10662929D01*
X10303786Y-10577214D02*
X10489500Y-10577214D01*
X10389500Y-10691500D01*
X10432357Y-10691500D01*
X10460928Y-10705786D01*
X10475214Y-10720072D01*
X10489500Y-10748643D01*
X10489500Y-10820072D01*
X10475214Y-10848643D01*
X10460928Y-10862929D01*
X10432357Y-10877214D01*
X10346643Y-10877214D01*
X10318071Y-10862929D01*
X10303786Y-10848643D01*
X10589500Y-10577214D02*
X10775214Y-10577214D01*
X10675214Y-10691500D01*
X10718071Y-10691500D01*
X10746643Y-10705786D01*
X10760928Y-10720072D01*
X10775214Y-10748643D01*
X10775214Y-10820072D01*
X10760928Y-10848643D01*
X10746643Y-10862929D01*
X10718071Y-10877214D01*
X10632357Y-10877214D01*
X10603786Y-10862929D01*
X10589500Y-10848643D01*
X10918071Y-10877214D02*
X10975214Y-10877214D01*
X11003786Y-10862929D01*
X11018071Y-10848643D01*
X11046643Y-10805786D01*
X11060928Y-10748643D01*
X11060928Y-10634357D01*
X11046643Y-10605786D01*
X11032357Y-10591500D01*
X11003786Y-10577214D01*
X10946643Y-10577214D01*
X10918071Y-10591500D01*
X10903786Y-10605786D01*
X10889500Y-10634357D01*
X10889500Y-10705786D01*
X10903786Y-10734357D01*
X10918071Y-10748643D01*
X10946643Y-10762929D01*
X11003786Y-10762929D01*
X11032357Y-10748643D01*
X11046643Y-10734357D01*
X11060928Y-10705786D01*
X11175214Y-10577214D02*
X11175214Y-10634357D01*
X11289500Y-10577214D02*
X11289500Y-10634357D01*
X11732357Y-10991500D02*
X11718071Y-10977214D01*
X11689500Y-10934357D01*
X11675214Y-10905786D01*
X11660928Y-10862929D01*
X11646643Y-10791500D01*
X11646643Y-10734357D01*
X11660928Y-10662929D01*
X11675214Y-10620072D01*
X11689500Y-10591500D01*
X11718071Y-10548643D01*
X11732357Y-10534357D01*
X12003786Y-10877214D02*
X11832357Y-10877214D01*
X11918071Y-10877214D02*
X11918071Y-10577214D01*
X11889500Y-10620072D01*
X11860928Y-10648643D01*
X11832357Y-10662929D01*
X12360928Y-10877214D02*
X12360928Y-10577214D01*
X12489500Y-10877214D02*
X12489500Y-10720072D01*
X12475214Y-10691500D01*
X12446643Y-10677214D01*
X12403786Y-10677214D01*
X12375214Y-10691500D01*
X12360928Y-10705786D01*
X12675214Y-10877214D02*
X12646643Y-10862929D01*
X12632357Y-10848643D01*
X12618071Y-10820072D01*
X12618071Y-10734357D01*
X12632357Y-10705786D01*
X12646643Y-10691500D01*
X12675214Y-10677214D01*
X12718071Y-10677214D01*
X12746643Y-10691500D01*
X12760928Y-10705786D01*
X12775214Y-10734357D01*
X12775214Y-10820072D01*
X12760928Y-10848643D01*
X12746643Y-10862929D01*
X12718071Y-10877214D01*
X12675214Y-10877214D01*
X12946643Y-10877214D02*
X12918071Y-10862929D01*
X12903786Y-10834357D01*
X12903786Y-10577214D01*
X13175214Y-10862929D02*
X13146643Y-10877214D01*
X13089500Y-10877214D01*
X13060928Y-10862929D01*
X13046643Y-10834357D01*
X13046643Y-10720072D01*
X13060928Y-10691500D01*
X13089500Y-10677214D01*
X13146643Y-10677214D01*
X13175214Y-10691500D01*
X13189500Y-10720072D01*
X13189500Y-10748643D01*
X13046643Y-10777214D01*
X13289500Y-10991500D02*
X13303786Y-10977214D01*
X13332357Y-10934357D01*
X13346643Y-10905786D01*
X13360928Y-10862929D01*
X13375214Y-10791500D01*
X13375214Y-10734357D01*
X13360928Y-10662929D01*
X13346643Y-10620072D01*
X13332357Y-10591500D01*
X13303786Y-10548643D01*
X13289500Y-10534357D01*
X13832357Y-10991500D02*
X13818071Y-10977214D01*
X13789500Y-10934357D01*
X13775214Y-10905786D01*
X13760928Y-10862929D01*
X13746643Y-10791500D01*
X13746643Y-10734357D01*
X13760928Y-10662929D01*
X13775214Y-10620072D01*
X13789500Y-10591500D01*
X13818071Y-10548643D01*
X13832357Y-10534357D01*
X13946643Y-10677214D02*
X13946643Y-10877214D01*
X13946643Y-10705786D02*
X13960928Y-10691500D01*
X13989500Y-10677214D01*
X14032357Y-10677214D01*
X14060928Y-10691500D01*
X14075214Y-10720072D01*
X14075214Y-10877214D01*
X14260928Y-10877214D02*
X14232357Y-10862929D01*
X14218071Y-10848643D01*
X14203786Y-10820072D01*
X14203786Y-10734357D01*
X14218071Y-10705786D01*
X14232357Y-10691500D01*
X14260928Y-10677214D01*
X14303786Y-10677214D01*
X14332357Y-10691500D01*
X14346643Y-10705786D01*
X14360928Y-10734357D01*
X14360928Y-10820072D01*
X14346643Y-10848643D01*
X14332357Y-10862929D01*
X14303786Y-10877214D01*
X14260928Y-10877214D01*
X14446643Y-10677214D02*
X14560928Y-10677214D01*
X14489500Y-10577214D02*
X14489500Y-10834357D01*
X14503786Y-10862929D01*
X14532357Y-10877214D01*
X14560928Y-10877214D01*
X14889500Y-10677214D02*
X14889500Y-10977214D01*
X14889500Y-10691500D02*
X14918071Y-10677214D01*
X14975214Y-10677214D01*
X15003786Y-10691500D01*
X15018071Y-10705786D01*
X15032357Y-10734357D01*
X15032357Y-10820072D01*
X15018071Y-10848643D01*
X15003786Y-10862929D01*
X14975214Y-10877214D01*
X14918071Y-10877214D01*
X14889500Y-10862929D01*
X15203786Y-10877214D02*
X15175214Y-10862929D01*
X15160928Y-10834357D01*
X15160928Y-10577214D01*
X15446643Y-10877214D02*
X15446643Y-10720072D01*
X15432357Y-10691500D01*
X15403786Y-10677214D01*
X15346643Y-10677214D01*
X15318071Y-10691500D01*
X15446643Y-10862929D02*
X15418071Y-10877214D01*
X15346643Y-10877214D01*
X15318071Y-10862929D01*
X15303786Y-10834357D01*
X15303786Y-10805786D01*
X15318071Y-10777214D01*
X15346643Y-10762929D01*
X15418071Y-10762929D01*
X15446643Y-10748643D01*
X15546643Y-10677214D02*
X15660928Y-10677214D01*
X15589500Y-10577214D02*
X15589500Y-10834357D01*
X15603786Y-10862929D01*
X15632357Y-10877214D01*
X15660928Y-10877214D01*
X15875214Y-10862929D02*
X15846643Y-10877214D01*
X15789500Y-10877214D01*
X15760928Y-10862929D01*
X15746643Y-10834357D01*
X15746643Y-10720072D01*
X15760928Y-10691500D01*
X15789500Y-10677214D01*
X15846643Y-10677214D01*
X15875214Y-10691500D01*
X15889500Y-10720072D01*
X15889500Y-10748643D01*
X15746643Y-10777214D01*
X16146643Y-10877214D02*
X16146643Y-10577214D01*
X16146643Y-10862929D02*
X16118071Y-10877214D01*
X16060928Y-10877214D01*
X16032357Y-10862929D01*
X16018071Y-10848643D01*
X16003786Y-10820072D01*
X16003786Y-10734357D01*
X16018071Y-10705786D01*
X16032357Y-10691500D01*
X16060928Y-10677214D01*
X16118071Y-10677214D01*
X16146643Y-10691500D01*
X16260928Y-10991500D02*
X16275214Y-10977214D01*
X16303786Y-10934357D01*
X16318071Y-10905786D01*
X16332357Y-10862929D01*
X16346643Y-10791500D01*
X16346643Y-10734357D01*
X16332357Y-10662929D01*
X16318071Y-10620072D01*
X16303786Y-10591500D01*
X16275214Y-10548643D01*
X16260928Y-10534357D01*
M02*
