%TF.GenerationSoftware,KiCad,Pcbnew,(5.1.12)-1*%
%TF.CreationDate,2021-11-17T16:43:58+01:00*%
%TF.ProjectId,SC-88VL,53432d38-3856-44c2-9e6b-696361645f70,rev?*%
%TF.SameCoordinates,Original*%
%TF.FileFunction,Plated,1,2,PTH,Drill*%
%TF.FilePolarity,Positive*%
%FSLAX46Y46*%
G04 Gerber Fmt 4.6, Leading zero omitted, Abs format (unit mm)*
G04 Created by KiCad (PCBNEW (5.1.12)-1) date 2021-11-17 16:43:58*
%MOMM*%
%LPD*%
G01*
G04 APERTURE LIST*
%TA.AperFunction,ViaDrill*%
%ADD10C,0.400000*%
%TD*%
%TA.AperFunction,ComponentDrill*%
%ADD11C,0.600000*%
%TD*%
%TA.AperFunction,ComponentDrill*%
%ADD12C,0.800000*%
%TD*%
%TA.AperFunction,ComponentDrill*%
%ADD13C,0.900000*%
%TD*%
%TA.AperFunction,ComponentDrill*%
%ADD14C,1.500000*%
%TD*%
G04 APERTURE END LIST*
D10*
X69850000Y-66040000D03*
X69850000Y-78740000D03*
X78740000Y-57150000D03*
X78740000Y-62230000D03*
X78740000Y-64770000D03*
X78740000Y-81280000D03*
X81280000Y-55880000D03*
X81280000Y-58420000D03*
X82550000Y-43180000D03*
X82550000Y-46990000D03*
X82550000Y-62230000D03*
X82550000Y-64770000D03*
X92710000Y-73660000D03*
X95250000Y-83820000D03*
X97790000Y-80010000D03*
X97790000Y-82550000D03*
X97790000Y-83820000D03*
X99060000Y-80010000D03*
X99060000Y-82550000D03*
X101600000Y-45720000D03*
X101600000Y-48260000D03*
X102870000Y-59690000D03*
X102870000Y-66040000D03*
X106815000Y-76065000D03*
D11*
%TO.C,33uf*%
X67310000Y-43180000D03*
X67310000Y-45180000D03*
D12*
%TO.C,TC9231N*%
X86360000Y-39370000D03*
X86360000Y-54610000D03*
%TO.C,74HC04*%
X86360000Y-63500000D03*
X86360000Y-71120000D03*
%TO.C,74HC74*%
X86360000Y-77470000D03*
X86360000Y-85090000D03*
%TO.C,TC9231N*%
X88900000Y-39370000D03*
X88900000Y-54610000D03*
%TO.C,74HC04*%
X88900000Y-63500000D03*
X88900000Y-71120000D03*
%TO.C,74HC74*%
X88900000Y-77470000D03*
X88900000Y-85090000D03*
%TO.C,TC9231N*%
X91440000Y-39370000D03*
X91440000Y-54610000D03*
%TO.C,74HC04*%
X91440000Y-63500000D03*
X91440000Y-71120000D03*
%TO.C,74HC74*%
X91440000Y-77470000D03*
X91440000Y-85090000D03*
%TO.C,TC9231N*%
X93980000Y-39370000D03*
X93980000Y-54610000D03*
%TO.C,74HC04*%
X93980000Y-63500000D03*
X93980000Y-71120000D03*
%TO.C,74HC74*%
X93980000Y-77470000D03*
X93980000Y-85090000D03*
%TO.C,TC9231N*%
X96520000Y-39370000D03*
X96520000Y-54610000D03*
%TO.C,74HC04*%
X96520000Y-63500000D03*
X96520000Y-71120000D03*
%TO.C,74HC74*%
X96520000Y-77470000D03*
X96520000Y-85090000D03*
%TO.C,TC9231N*%
X99060000Y-39370000D03*
X99060000Y-54610000D03*
%TO.C,74HC04*%
X99060000Y-63500000D03*
X99060000Y-71120000D03*
%TO.C,74HC74*%
X99060000Y-77470000D03*
X99060000Y-85090000D03*
%TO.C,TC9231N*%
X101600000Y-39370000D03*
X101600000Y-54610000D03*
%TO.C,74HC04*%
X101600000Y-63500000D03*
X101600000Y-71120000D03*
%TO.C,74HC74*%
X101600000Y-77470000D03*
X101600000Y-85090000D03*
%TO.C,TC9231N*%
X104140000Y-39370000D03*
X104140000Y-54610000D03*
X106680000Y-39370000D03*
X106680000Y-54610000D03*
X109220000Y-39370000D03*
X109220000Y-54610000D03*
X111760000Y-39370000D03*
X111760000Y-54610000D03*
X114300000Y-39370000D03*
X114300000Y-54610000D03*
X116840000Y-39370000D03*
X116840000Y-54610000D03*
X119380000Y-39370000D03*
X119380000Y-54610000D03*
D13*
%TO.C,SWITCH*%
X119380000Y-90170000D03*
X121380000Y-90170000D03*
X123380000Y-90170000D03*
D14*
X117280000Y-90170000D03*
%TO.C,TOSLINK TX*%
X118110000Y-68580000D03*
X118110000Y-74030000D03*
X118110000Y-79480000D03*
%TO.C,SWITCH*%
X125480000Y-90170000D03*
M02*
