%TF.GenerationSoftware,KiCad,Pcbnew,(5.1.12)-1*%
%TF.CreationDate,2021-11-17T21:51:36+01:00*%
%TF.ProjectId,SC-88VL,53432d38-3856-44c2-9e6b-696361645f70,rev?*%
%TF.SameCoordinates,Original*%
%TF.FileFunction,Copper,L1,Top*%
%TF.FilePolarity,Positive*%
%FSLAX46Y46*%
G04 Gerber Fmt 4.6, Leading zero omitted, Abs format (unit mm)*
G04 Created by KiCad (PCBNEW (5.1.12)-1) date 2021-11-17 21:51:36*
%MOMM*%
%LPD*%
G01*
G04 APERTURE LIST*
%TA.AperFunction,ComponentPad*%
%ADD10R,2.500000X1.500000*%
%TD*%
%TA.AperFunction,ComponentPad*%
%ADD11O,2.500000X1.500000*%
%TD*%
%TA.AperFunction,ComponentPad*%
%ADD12C,2.500000*%
%TD*%
%TA.AperFunction,ComponentPad*%
%ADD13R,1.600000X1.600000*%
%TD*%
%TA.AperFunction,ComponentPad*%
%ADD14O,1.600000X1.600000*%
%TD*%
%TA.AperFunction,ComponentPad*%
%ADD15O,4.500000X2.500000*%
%TD*%
%TA.AperFunction,ComponentPad*%
%ADD16R,4.500000X2.500000*%
%TD*%
%TA.AperFunction,ComponentPad*%
%ADD17O,2.200000X3.500000*%
%TD*%
%TA.AperFunction,ComponentPad*%
%ADD18O,1.500000X2.500000*%
%TD*%
%TA.AperFunction,ComponentPad*%
%ADD19R,1.500000X2.500000*%
%TD*%
%TA.AperFunction,SMDPad,CuDef*%
%ADD20R,1.000000X1.000000*%
%TD*%
%TA.AperFunction,ComponentPad*%
%ADD21C,1.200000*%
%TD*%
%TA.AperFunction,ComponentPad*%
%ADD22R,1.200000X1.200000*%
%TD*%
%TA.AperFunction,ViaPad*%
%ADD23C,0.800000*%
%TD*%
%TA.AperFunction,Conductor*%
%ADD24C,0.250000*%
%TD*%
G04 APERTURE END LIST*
D10*
%TO.P,TOTX170/173/193/194,1*%
%TO.N,N/C*%
X130810000Y-53340000D03*
D11*
%TO.P,TOTX170/173/193/194,2*%
X130810000Y-55880000D03*
%TO.P,TOTX170/173/193/194,3*%
X130810000Y-58420000D03*
%TO.P,TOTX170/173/193/194,4*%
X130810000Y-60960000D03*
D12*
%TO.P,TOTX170/173/193/194,5*%
X135010000Y-62350000D03*
%TO.P,TOTX170/173/193/194,6*%
X135010000Y-51950000D03*
%TD*%
D13*
%TO.P,TC9231N,1*%
%TO.N,N/C*%
X86360000Y-54610000D03*
D14*
%TO.P,TC9231N,15*%
X119380000Y-39370000D03*
%TO.P,TC9231N,2*%
X88900000Y-54610000D03*
%TO.P,TC9231N,16*%
X116840000Y-39370000D03*
%TO.P,TC9231N,3*%
X91440000Y-54610000D03*
%TO.P,TC9231N,17*%
X114300000Y-39370000D03*
%TO.P,TC9231N,4*%
X93980000Y-54610000D03*
%TO.P,TC9231N,18*%
X111760000Y-39370000D03*
%TO.P,TC9231N,5*%
X96520000Y-54610000D03*
%TO.P,TC9231N,19*%
X109220000Y-39370000D03*
%TO.P,TC9231N,6*%
X99060000Y-54610000D03*
%TO.P,TC9231N,20*%
X106680000Y-39370000D03*
%TO.P,TC9231N,7*%
X101600000Y-54610000D03*
%TO.P,TC9231N,21*%
X104140000Y-39370000D03*
%TO.P,TC9231N,8*%
X104140000Y-54610000D03*
%TO.P,TC9231N,22*%
X101600000Y-39370000D03*
%TO.P,TC9231N,9*%
X106680000Y-54610000D03*
%TO.P,TC9231N,23*%
X99060000Y-39370000D03*
%TO.P,TC9231N,10*%
X109220000Y-54610000D03*
%TO.P,TC9231N,24*%
X96520000Y-39370000D03*
%TO.P,TC9231N,11*%
X111760000Y-54610000D03*
%TO.P,TC9231N,25*%
X93980000Y-39370000D03*
%TO.P,TC9231N,12*%
X114300000Y-54610000D03*
%TO.P,TC9231N,26*%
X91440000Y-39370000D03*
%TO.P,TC9231N,13*%
X116840000Y-54610000D03*
%TO.P,TC9231N,27*%
X88900000Y-39370000D03*
%TO.P,TC9231N,14*%
X119380000Y-54610000D03*
%TO.P,TC9231N,28*%
X86360000Y-39370000D03*
%TD*%
D15*
%TO.P,TOSLINK TX,3*%
%TO.N,N/C*%
X118110000Y-79480000D03*
%TO.P,TOSLINK TX,2*%
X118110000Y-74030000D03*
D16*
%TO.P,TOSLINK TX,1*%
X118110000Y-68580000D03*
%TD*%
D17*
%TO.P,SWITCH,*%
%TO.N,*%
X125480000Y-90170000D03*
X117280000Y-90170000D03*
D18*
%TO.P,SWITCH,3*%
%TO.N,N/C*%
X123380000Y-90170000D03*
%TO.P,SWITCH,2*%
X121380000Y-90170000D03*
D19*
%TO.P,SWITCH,1*%
X119380000Y-90170000D03*
%TD*%
%TO.P,0.1uf,2*%
%TO.N,N/C*%
%TA.AperFunction,SMDPad,CuDef*%
G36*
G01*
X109375000Y-75297500D02*
X109065000Y-75297500D01*
G75*
G02*
X108910000Y-75142500I0J155000D01*
G01*
X108910000Y-74717500D01*
G75*
G02*
X109065000Y-74562500I155000J0D01*
G01*
X109375000Y-74562500D01*
G75*
G02*
X109530000Y-74717500I0J-155000D01*
G01*
X109530000Y-75142500D01*
G75*
G02*
X109375000Y-75297500I-155000J0D01*
G01*
G37*
%TD.AperFunction*%
%TO.P,0.1uf,1*%
%TA.AperFunction,SMDPad,CuDef*%
G36*
G01*
X109375000Y-76432500D02*
X109065000Y-76432500D01*
G75*
G02*
X108910000Y-76277500I0J155000D01*
G01*
X108910000Y-75852500D01*
G75*
G02*
X109065000Y-75697500I155000J0D01*
G01*
X109375000Y-75697500D01*
G75*
G02*
X109530000Y-75852500I0J-155000D01*
G01*
X109530000Y-76277500D01*
G75*
G02*
X109375000Y-76432500I-155000J0D01*
G01*
G37*
%TD.AperFunction*%
%TD*%
%TO.P,0.1uf,2*%
%TO.N,N/C*%
%TA.AperFunction,SMDPad,CuDef*%
G36*
G01*
X73815000Y-44250000D02*
X73505000Y-44250000D01*
G75*
G02*
X73350000Y-44095000I0J155000D01*
G01*
X73350000Y-43670000D01*
G75*
G02*
X73505000Y-43515000I155000J0D01*
G01*
X73815000Y-43515000D01*
G75*
G02*
X73970000Y-43670000I0J-155000D01*
G01*
X73970000Y-44095000D01*
G75*
G02*
X73815000Y-44250000I-155000J0D01*
G01*
G37*
%TD.AperFunction*%
%TO.P,0.1uf,1*%
%TA.AperFunction,SMDPad,CuDef*%
G36*
G01*
X73815000Y-45385000D02*
X73505000Y-45385000D01*
G75*
G02*
X73350000Y-45230000I0J155000D01*
G01*
X73350000Y-44805000D01*
G75*
G02*
X73505000Y-44650000I155000J0D01*
G01*
X73815000Y-44650000D01*
G75*
G02*
X73970000Y-44805000I0J-155000D01*
G01*
X73970000Y-45230000D01*
G75*
G02*
X73815000Y-45385000I-155000J0D01*
G01*
G37*
%TD.AperFunction*%
%TD*%
D20*
%TO.P,DATA,1*%
%TO.N,N/C*%
X67310000Y-78740000D03*
%TD*%
%TO.P,BCK,1*%
%TO.N,N/C*%
X67310000Y-72390000D03*
%TD*%
%TO.P,LRCK,1*%
%TO.N,N/C*%
X67310000Y-66040000D03*
%TD*%
%TO.P,GND,1*%
%TO.N,N/C*%
X67310000Y-52070000D03*
%TD*%
%TO.P,+5V,1*%
%TO.N,N/C*%
X67310000Y-35560000D03*
%TD*%
D21*
%TO.P,33uf,2*%
%TO.N,N/C*%
X67310000Y-45180000D03*
D22*
%TO.P,33uf,1*%
X67310000Y-43180000D03*
%TD*%
D14*
%TO.P,74HC74,14*%
%TO.N,N/C*%
X86360000Y-77470000D03*
%TO.P,74HC74,7*%
X101600000Y-85090000D03*
%TO.P,74HC74,13*%
X88900000Y-77470000D03*
%TO.P,74HC74,6*%
X99060000Y-85090000D03*
%TO.P,74HC74,12*%
X91440000Y-77470000D03*
%TO.P,74HC74,5*%
X96520000Y-85090000D03*
%TO.P,74HC74,11*%
X93980000Y-77470000D03*
%TO.P,74HC74,4*%
X93980000Y-85090000D03*
%TO.P,74HC74,10*%
X96520000Y-77470000D03*
%TO.P,74HC74,3*%
X91440000Y-85090000D03*
%TO.P,74HC74,9*%
X99060000Y-77470000D03*
%TO.P,74HC74,2*%
X88900000Y-85090000D03*
%TO.P,74HC74,8*%
X101600000Y-77470000D03*
D13*
%TO.P,74HC74,1*%
X86360000Y-85090000D03*
%TD*%
D14*
%TO.P,74HC04,14*%
%TO.N,N/C*%
X86360000Y-63500000D03*
%TO.P,74HC04,7*%
X101600000Y-71120000D03*
%TO.P,74HC04,13*%
X88900000Y-63500000D03*
%TO.P,74HC04,6*%
X99060000Y-71120000D03*
%TO.P,74HC04,12*%
X91440000Y-63500000D03*
%TO.P,74HC04,5*%
X96520000Y-71120000D03*
%TO.P,74HC04,11*%
X93980000Y-63500000D03*
%TO.P,74HC04,4*%
X93980000Y-71120000D03*
%TO.P,74HC04,10*%
X96520000Y-63500000D03*
%TO.P,74HC04,3*%
X91440000Y-71120000D03*
%TO.P,74HC04,9*%
X99060000Y-63500000D03*
%TO.P,74HC04,2*%
X88900000Y-71120000D03*
%TO.P,74HC04,8*%
X101600000Y-63500000D03*
D13*
%TO.P,74HC04,1*%
X86360000Y-71120000D03*
%TD*%
D23*
%TO.N,*%
X69850000Y-66040000D03*
X69850000Y-78740000D03*
X82550000Y-64770000D03*
X82550000Y-62230000D03*
X82550000Y-46990000D03*
X82550000Y-43180000D03*
X78740000Y-81280000D03*
X78740000Y-64770000D03*
X78740000Y-62230000D03*
X106815000Y-76065000D03*
X78740000Y-57150000D03*
X81280000Y-55880000D03*
X81280000Y-58420000D03*
X92710000Y-73660000D03*
X97790000Y-80010000D03*
X97790000Y-82550000D03*
X99060000Y-80010000D03*
X99060000Y-82550000D03*
X97790000Y-83820000D03*
X95250000Y-83820000D03*
X101600000Y-45720000D03*
X102870000Y-59690000D03*
X102870000Y-66040000D03*
X102870000Y-57150000D03*
X124460000Y-71120000D03*
X111760000Y-68580000D03*
X127000000Y-62230000D03*
X124460000Y-62230000D03*
%TD*%
D24*
%TO.N,*%
X67310000Y-43180000D02*
X67310000Y-35560000D01*
X67310000Y-45180000D02*
X67310000Y-52070000D01*
X116840000Y-35560000D02*
X116840000Y-39370000D01*
X73660000Y-43882500D02*
X73660000Y-35560000D01*
X73660000Y-45017500D02*
X73660000Y-52070000D01*
X73660000Y-52070000D02*
X67310000Y-52070000D01*
X99060000Y-39370000D02*
X99060000Y-35560000D01*
X99060000Y-35560000D02*
X116840000Y-35560000D01*
X67310000Y-35560000D02*
X99060000Y-35560000D01*
X101600000Y-39370000D02*
X101600000Y-35560000D01*
X73660000Y-45017500D02*
X85792500Y-45017500D01*
X86360000Y-44450000D02*
X85792500Y-45017500D01*
X86360000Y-39370000D02*
X86360000Y-44450000D01*
X96520000Y-39370000D02*
X96520000Y-41910000D01*
X93980000Y-44450000D02*
X86360000Y-44450000D01*
X96520000Y-41910000D02*
X93980000Y-44450000D01*
X104140000Y-39370000D02*
X104140000Y-44450000D01*
X104140000Y-44450000D02*
X93980000Y-44450000D01*
X104140000Y-44450000D02*
X109220000Y-44450000D01*
X109220000Y-44450000D02*
X109220000Y-39370000D01*
X109220000Y-44450000D02*
X111760000Y-44450000D01*
X111760000Y-44450000D02*
X111760000Y-39370000D01*
X111760000Y-44450000D02*
X119380000Y-44450000D01*
X119380000Y-44450000D02*
X119380000Y-39370000D01*
X76200000Y-63500000D02*
X67310000Y-72390000D01*
X86360000Y-63500000D02*
X76200000Y-63500000D01*
X67310000Y-66040000D02*
X69850000Y-66040000D01*
X69850000Y-66040000D02*
X69850000Y-66040000D01*
X67310000Y-78740000D02*
X69850000Y-78740000D01*
X69850000Y-78740000D02*
X69850000Y-78740000D01*
X86360000Y-71120000D02*
X82550000Y-71120000D01*
X82550000Y-71120000D02*
X82550000Y-64770000D01*
X82550000Y-64770000D02*
X82550000Y-64770000D01*
X82550000Y-46990000D02*
X82550000Y-46990000D01*
X82550000Y-43180000D02*
X82550000Y-35560000D01*
X82550000Y-80010000D02*
X86360000Y-80010000D01*
X86360000Y-80010000D02*
X86360000Y-77470000D01*
X86360000Y-80010000D02*
X93980000Y-80010000D01*
X93980000Y-80010000D02*
X93980000Y-77470000D01*
X86360000Y-85090000D02*
X86360000Y-80010000D01*
X88900000Y-85090000D02*
X88900000Y-80010000D01*
X96520000Y-85090000D02*
X96520000Y-80010000D01*
X96520000Y-80010000D02*
X93980000Y-80010000D01*
X109220000Y-74930000D02*
X82550000Y-74930000D01*
X82550000Y-74930000D02*
X82550000Y-80010000D01*
X82550000Y-71120000D02*
X82550000Y-74930000D01*
X103005000Y-76065000D02*
X101600000Y-77470000D01*
X109220000Y-76065000D02*
X106815000Y-76065000D01*
X78740000Y-81280000D02*
X78740000Y-64770000D01*
X78740000Y-62230000D02*
X78740000Y-52070000D01*
X78740000Y-52070000D02*
X73660000Y-52070000D01*
X109220000Y-76065000D02*
X114695000Y-76065000D01*
X110120000Y-74030000D02*
X109220000Y-74930000D01*
X106815000Y-76065000D02*
X103005000Y-76065000D01*
X82550000Y-58420000D02*
X86360000Y-58420000D01*
X82550000Y-62230000D02*
X82550000Y-58420000D01*
X82550000Y-58420000D02*
X82550000Y-46990000D01*
X86360000Y-58420000D02*
X86360000Y-54610000D01*
X86360000Y-58420000D02*
X88900000Y-58420000D01*
X88900000Y-58420000D02*
X88900000Y-54610000D01*
X88900000Y-58420000D02*
X93980000Y-58420000D01*
X93980000Y-58420000D02*
X93980000Y-54610000D01*
X93980000Y-58420000D02*
X96520000Y-58420000D01*
X96520000Y-58420000D02*
X96520000Y-54610000D01*
X96520000Y-58420000D02*
X114300000Y-58420000D01*
X114300000Y-58420000D02*
X114300000Y-54610000D01*
X81280000Y-55880000D02*
X81280000Y-58420000D01*
X88900000Y-63500000D02*
X91440000Y-63500000D01*
X92710000Y-63500000D02*
X92710000Y-73660000D01*
X92710000Y-73660000D02*
X92710000Y-73660000D01*
X97790000Y-80010000D02*
X97790000Y-82550000D01*
X96520000Y-77470000D02*
X96520000Y-78740000D01*
X96520000Y-78740000D02*
X99060000Y-78740000D01*
X99060000Y-78740000D02*
X99060000Y-80010000D01*
X99060000Y-80010000D02*
X99060000Y-80010000D01*
X99060000Y-82550000D02*
X99060000Y-83820000D01*
X99060000Y-83820000D02*
X97790000Y-83820000D01*
X97790000Y-83820000D02*
X97790000Y-83820000D01*
X95250000Y-83820000D02*
X91440000Y-83820000D01*
X91440000Y-83820000D02*
X91440000Y-85090000D01*
X123380000Y-90170000D02*
X123380000Y-92520000D01*
X123380000Y-92520000D02*
X123190000Y-92710000D01*
X123190000Y-92710000D02*
X91440000Y-92710000D01*
X91440000Y-92710000D02*
X91440000Y-85090000D01*
X99060000Y-85090000D02*
X99060000Y-87630000D01*
X99060000Y-87630000D02*
X119380000Y-87630000D01*
X119380000Y-87630000D02*
X119380000Y-90170000D01*
X101600000Y-45720000D02*
X101600000Y-48260000D01*
X102870000Y-59690000D02*
X102870000Y-66040000D01*
X101600000Y-48260000D02*
X101600000Y-50800000D01*
X101600000Y-50800000D02*
X102870000Y-52070000D01*
X102870000Y-52070000D02*
X102870000Y-57150000D01*
X102870000Y-57150000D02*
X102870000Y-57150000D01*
X115835000Y-77205000D02*
X125465000Y-77205000D01*
X114695000Y-76065000D02*
X115835000Y-77205000D01*
X115835000Y-77205000D02*
X118110000Y-79480000D01*
X125465000Y-77205000D02*
X125730000Y-76940000D01*
X125730000Y-76940000D02*
X125730000Y-53340000D01*
X125730000Y-53340000D02*
X130810000Y-53340000D01*
X113930000Y-74030000D02*
X113930000Y-71490000D01*
X118110000Y-74030000D02*
X113930000Y-74030000D01*
X113930000Y-74030000D02*
X110120000Y-74030000D01*
X113930000Y-71490000D02*
X114300000Y-71120000D01*
X114300000Y-71120000D02*
X124460000Y-71120000D01*
X124460000Y-71120000D02*
X124460000Y-71120000D01*
X111760000Y-68580000D02*
X111760000Y-62230000D01*
X111760000Y-62230000D02*
X124460000Y-62230000D01*
X124460000Y-62230000D02*
X124460000Y-62230000D01*
X127000000Y-62230000D02*
X127000000Y-60960000D01*
X127000000Y-60960000D02*
X130810000Y-60960000D01*
%TD*%
M02*
